<svg id="Layer_1" data-name="Layer 1" xmlns="http://www.w3.org/2000/svg" viewBox="0 0 210.3 79.49"><defs><style>.cls-1{fill:none;}.cls-1,.cls-2{stroke:#fff;stroke-miterlimit:10;}.cls-2,.cls-4{fill:#11ad85;}.cls-3{fill:#fff;}</style></defs><rect class="cls-1" x="67.57" y="6.47" width="68.59" height="41.07" rx="6.41"/><line class="cls-1" x1="101.86" y1="47.33" x2="101.86" y2="6.69"/><circle class="cls-2" cx="101.86" cy="27.01" r="8.26"/><rect class="cls-1" x="67.57" y="17.32" width="9.52" height="19.38"/><rect class="cls-1" x="67.57" y="21.3" width="2.86" height="11.43" transform="translate(138 54.02) rotate(180)"/><polygon class="cls-3" points="98.41 26.71 101.04 26.71 110.38 15.08 103.59 30.15 100.79 29.97 92.5 38.12 98.41 26.71"/><path class="cls-4" d="M108.31,18.46l-5,11.17-2.69-.18-6.21,6.11,4.33-8.35h2.57l7-8.75m4.14-6.75-4.92,6.12-6.73,8.38H98.1l-.28.54L93.5,35.1l-2.89,5.58,4.48-4.41L101,30.48l2.23.15.69,0,.29-.63,5-11.17,3.23-7.16Z"/><path class="cls-3" d="M16.86,57.91v1.34H11v4.26h5v1.34H11v5.24H9.36V57.91Z"/><path class="cls-3" d="M22.88,70.09a.75.75,0,0,1-.34-.07.54.54,0,0,1-.19-.29l-.17-.81a6.41,6.41,0,0,1-.66.55,4.39,4.39,0,0,1-.68.41,3.78,3.78,0,0,1-.76.26,4.19,4.19,0,0,1-.9.08,2.93,2.93,0,0,1-.94-.14,2.14,2.14,0,0,1-.77-.42A1.9,1.9,0,0,1,17,69a2.56,2.56,0,0,1-.19-1A1.94,1.94,0,0,1,17,67a2.41,2.41,0,0,1,.91-.84,6.29,6.29,0,0,1,1.64-.6,12,12,0,0,1,2.48-.27v-.67a2.32,2.32,0,0,0-.43-1.52,1.57,1.57,0,0,0-1.27-.51,2.86,2.86,0,0,0-.94.14,3.59,3.59,0,0,0-.65.31l-.48.32a.69.69,0,0,1-.39.14.45.45,0,0,1-.26-.08.72.72,0,0,1-.19-.2l-.27-.49a4.7,4.7,0,0,1,1.54-1,4.61,4.61,0,0,1,1.82-.35,3.3,3.3,0,0,1,1.29.24,2.65,2.65,0,0,1,.94.67,2.69,2.69,0,0,1,.58,1,4.36,4.36,0,0,1,.19,1.33v5.51Zm-3.25-.93a2.9,2.9,0,0,0,.74-.08,2.55,2.55,0,0,0,.62-.23,3.33,3.33,0,0,0,.56-.36,5.94,5.94,0,0,0,.52-.49V66.21a13.46,13.46,0,0,0-1.78.17,5.06,5.06,0,0,0-1.19.34,1.7,1.7,0,0,0-.68.5,1.09,1.09,0,0,0-.2.65,1.35,1.35,0,0,0,.11.59,1,1,0,0,0,.3.4,1.2,1.2,0,0,0,.45.23A2,2,0,0,0,19.63,69.16Z"/><path class="cls-3" d="M25.86,70.09V61.48h.91a.38.38,0,0,1,.4.31l.11.94a5,5,0,0,1,1.26-1,3.36,3.36,0,0,1,1.61-.38,3,3,0,0,1,1.24.24,2.4,2.4,0,0,1,.91.66,2.89,2.89,0,0,1,.54,1A4.34,4.34,0,0,1,33,64.61v5.48H31.51V64.61a2.3,2.3,0,0,0-.45-1.52,1.64,1.64,0,0,0-1.35-.54,2.63,2.63,0,0,0-1.27.32,4.14,4.14,0,0,0-1.06.88v6.34Z"/><path class="cls-3" d="M37.87,70.22a2.1,2.1,0,0,1-1.57-.56A2.27,2.27,0,0,1,35.75,68V62.74h-1a.32.32,0,0,1-.23-.08.3.3,0,0,1-.09-.25v-.6l1.41-.18L36.15,59a.45.45,0,0,1,.12-.21.32.32,0,0,1,.23-.08h.76v3h2.49v1.09H37.26v5.17a1.08,1.08,0,0,0,.27.81.89.89,0,0,0,.68.26,1.27,1.27,0,0,0,.41-.06,1.4,1.4,0,0,0,.3-.14l.22-.14a.29.29,0,0,1,.16-.06.25.25,0,0,1,.21.14l.44.72A2.81,2.81,0,0,1,39,70,3.19,3.19,0,0,1,37.87,70.22Z"/><path class="cls-3" d="M46.79,70.09a.75.75,0,0,1-.34-.07.49.49,0,0,1-.18-.29l-.17-.81a7.75,7.75,0,0,1-.67.55,4.39,4.39,0,0,1-.68.41,3.78,3.78,0,0,1-.76.26,4.19,4.19,0,0,1-.9.08,2.93,2.93,0,0,1-.94-.14,2.14,2.14,0,0,1-.77-.42,1.9,1.9,0,0,1-.52-.71,2.56,2.56,0,0,1-.19-1A1.94,1.94,0,0,1,41,67a2.41,2.41,0,0,1,.91-.84,6.29,6.29,0,0,1,1.64-.6A12,12,0,0,1,46,65.25v-.67a2.32,2.32,0,0,0-.43-1.52,1.57,1.57,0,0,0-1.27-.51,2.76,2.76,0,0,0-.93.14,3.4,3.4,0,0,0-.66.31l-.48.32a.69.69,0,0,1-.39.14.45.45,0,0,1-.26-.08.72.72,0,0,1-.19-.2l-.27-.49a4.7,4.7,0,0,1,1.54-1,4.61,4.61,0,0,1,1.82-.35,3.3,3.3,0,0,1,1.29.24,2.65,2.65,0,0,1,.94.67,2.69,2.69,0,0,1,.58,1,4.36,4.36,0,0,1,.19,1.33v5.51Zm-3.25-.93a2.85,2.85,0,0,0,.74-.08,2.55,2.55,0,0,0,.62-.23,3.33,3.33,0,0,0,.56-.36A5.94,5.94,0,0,0,46,68V66.21a13.46,13.46,0,0,0-1.78.17,5.06,5.06,0,0,0-1.19.34,1.7,1.7,0,0,0-.68.5,1.09,1.09,0,0,0-.2.65,1.35,1.35,0,0,0,.11.59,1,1,0,0,0,.3.4,1.2,1.2,0,0,0,.45.23A2,2,0,0,0,43.54,69.16Z"/><path class="cls-3" d="M54.78,62.9a.33.33,0,0,1-.31.18.6.6,0,0,1-.29-.09l-.4-.21a5.37,5.37,0,0,0-.55-.21,2.88,2.88,0,0,0-.77-.1,2.5,2.5,0,0,0-.69.1,1.6,1.6,0,0,0-.52.27,1.23,1.23,0,0,0-.33.39,1,1,0,0,0-.12.49.79.79,0,0,0,.2.55,1.55,1.55,0,0,0,.5.39,5.25,5.25,0,0,0,.71.28l.83.27a8.11,8.11,0,0,1,.82.31,3,3,0,0,1,.71.42,1.85,1.85,0,0,1,.7,1.51,2.64,2.64,0,0,1-.22,1.1,2.38,2.38,0,0,1-.63.88,2.81,2.81,0,0,1-1,.58,4.19,4.19,0,0,1-1.39.21,4.26,4.26,0,0,1-1.63-.29,3.91,3.91,0,0,1-1.24-.75l.35-.58a.55.55,0,0,1,.17-.17.41.41,0,0,1,.23-.06.58.58,0,0,1,.33.12,4.27,4.27,0,0,0,.41.26,3,3,0,0,0,.59.27,2.68,2.68,0,0,0,.87.12,2.26,2.26,0,0,0,.77-.12,1.47,1.47,0,0,0,.55-.31,1.19,1.19,0,0,0,.33-.45,1.41,1.41,0,0,0,.11-.54.93.93,0,0,0-.19-.59,1.59,1.59,0,0,0-.51-.4,4,4,0,0,0-.72-.29l-.82-.26c-.28-.09-.56-.2-.83-.31a2.89,2.89,0,0,1-.72-.44,1.92,1.92,0,0,1-.5-.65,2.07,2.07,0,0,1-.19-.94,2.28,2.28,0,0,1,.8-1.75,3,3,0,0,1,1-.54,3.73,3.73,0,0,1,1.3-.21,4.07,4.07,0,0,1,1.52.27,3.68,3.68,0,0,1,1.17.73Z"/><path class="cls-3" d="M59.6,72.63a.77.77,0,0,1-.19.27.5.5,0,0,1-.35.1H57.94l1.57-3.41L56,61.48h1.31a.43.43,0,0,1,.31.1.46.46,0,0,1,.16.21L60,67.22c0,.13.09.25.13.37a2.66,2.66,0,0,1,.1.38c.08-.25.16-.51.26-.76l2.23-5.42a.55.55,0,0,1,.18-.22.45.45,0,0,1,.28-.09H64.4Z"/><path class="cls-3" d="M71.67,68.7h5.27v1.39H70V57.91h1.64Z"/><path class="cls-3" d="M81.31,61.34a3.91,3.91,0,0,1,1.43.26,3.15,3.15,0,0,1,1.14.75,3.45,3.45,0,0,1,.75,1.21,4.6,4.6,0,0,1,.28,1.63,1,1,0,0,1-.08.48.32.32,0,0,1-.29.12H78.79A4.65,4.65,0,0,0,79,67.21a2.69,2.69,0,0,0,.56,1,2.34,2.34,0,0,0,.85.61,3,3,0,0,0,1.1.2,3.47,3.47,0,0,0,1-.13,4.51,4.51,0,0,0,.71-.29c.2-.1.37-.2.5-.28a.66.66,0,0,1,.35-.14.31.31,0,0,1,.28.15l.43.55a2.71,2.71,0,0,1-.67.59,3.63,3.63,0,0,1-.84.41,5.67,5.67,0,0,1-.92.25,6.09,6.09,0,0,1-1,.08,4.39,4.39,0,0,1-1.64-.3,3.77,3.77,0,0,1-1.3-.89,4,4,0,0,1-.85-1.44,5.7,5.7,0,0,1-.31-2,4.86,4.86,0,0,1,.28-1.68,3.83,3.83,0,0,1,.79-1.36,3.76,3.76,0,0,1,1.27-.9A4.13,4.13,0,0,1,81.31,61.34Zm0,1.12a2.32,2.32,0,0,0-1.72.63,3,3,0,0,0-.78,1.75h4.71a2.93,2.93,0,0,0-.15-1,2.3,2.3,0,0,0-.44-.76,2,2,0,0,0-.69-.49A2.27,2.27,0,0,0,81.34,62.46Z"/><path class="cls-3" d="M92.23,70.09a.75.75,0,0,1-.34-.07.49.49,0,0,1-.18-.29l-.17-.81a7.75,7.75,0,0,1-.67.55,4.39,4.39,0,0,1-.68.41,3.78,3.78,0,0,1-.76.26,4.15,4.15,0,0,1-.89.08,3,3,0,0,1-1-.14,2.14,2.14,0,0,1-.77-.42A1.9,1.9,0,0,1,86.3,69a2.56,2.56,0,0,1-.19-1,1.94,1.94,0,0,1,.28-1,2.41,2.41,0,0,1,.91-.84,6.29,6.29,0,0,1,1.64-.6,12.05,12.05,0,0,1,2.49-.27v-.67A2.32,2.32,0,0,0,91,63.06a1.56,1.56,0,0,0-1.26-.51,2.78,2.78,0,0,0-.94.14,3.7,3.7,0,0,0-.66.31c-.18.12-.34.22-.47.32a.75.75,0,0,1-.4.14.45.45,0,0,1-.26-.08.72.72,0,0,1-.19-.2l-.27-.49a4.7,4.7,0,0,1,1.54-1,4.65,4.65,0,0,1,1.82-.35,3.26,3.26,0,0,1,1.29.24,2.56,2.56,0,0,1,.94.67,2.69,2.69,0,0,1,.58,1,4.36,4.36,0,0,1,.19,1.33v5.51ZM89,69.16a2.82,2.82,0,0,0,.73-.08,2.55,2.55,0,0,0,.62-.23,3.33,3.33,0,0,0,.56-.36c.18-.15.35-.31.53-.49V66.21a13.46,13.46,0,0,0-1.79.17,5.06,5.06,0,0,0-1.19.34,1.7,1.7,0,0,0-.68.5,1.16,1.16,0,0,0-.2.65,1.35,1.35,0,0,0,.11.59,1,1,0,0,0,.3.4,1.2,1.2,0,0,0,.45.23A2,2,0,0,0,89,69.16Z"/><path class="cls-3" d="M98.21,61.33a3.85,3.85,0,0,1,1,.13,3.2,3.2,0,0,1,.89.36h2.33v.56c0,.19-.11.31-.35.36l-1,.13a2.66,2.66,0,0,1,.29,1.23,2.69,2.69,0,0,1-.24,1.15,2.75,2.75,0,0,1-.67.88,3,3,0,0,1-1,.56,4.15,4.15,0,0,1-1.29.19,4.27,4.27,0,0,1-1.15-.14,1.24,1.24,0,0,0-.41.37.6.6,0,0,0-.14.38.5.5,0,0,0,.25.46,1.82,1.82,0,0,0,.66.23,7.88,7.88,0,0,0,.93.08l1.07.06a9.47,9.47,0,0,1,1.07.13,3.17,3.17,0,0,1,.93.3,1.88,1.88,0,0,1,.66.59,1.68,1.68,0,0,1,.25,1,2.19,2.19,0,0,1-.28,1.07,2.86,2.86,0,0,1-.79.92A4.1,4.1,0,0,1,100,73a5.58,5.58,0,0,1-1.7.24A6.24,6.24,0,0,1,96.64,73a3.72,3.72,0,0,1-1.17-.5,2.27,2.27,0,0,1-.7-.72,1.72,1.72,0,0,1-.23-.87,1.59,1.59,0,0,1,.39-1.08,2.78,2.78,0,0,1,1.09-.7,1.66,1.66,0,0,1-.6-.46,1.2,1.2,0,0,1-.22-.77,1.06,1.06,0,0,1,.07-.38,1.19,1.19,0,0,1,.21-.4,1.94,1.94,0,0,1,.34-.37,1.91,1.91,0,0,1,.48-.32,2.54,2.54,0,0,1-1-1,2.58,2.58,0,0,1-.36-1.38A2.54,2.54,0,0,1,95.19,63a2.48,2.48,0,0,1,.67-.87,3,3,0,0,1,1-.56A4.25,4.25,0,0,1,98.21,61.33Zm2.73,9.23a.72.72,0,0,0-.18-.51,1.18,1.18,0,0,0-.48-.31,3.28,3.28,0,0,0-.7-.16l-.85-.07-.9-.05c-.31,0-.61,0-.89-.09a2.44,2.44,0,0,0-.78.56,1.13,1.13,0,0,0-.3.79,1,1,0,0,0,.15.54,1.28,1.28,0,0,0,.46.43,2.68,2.68,0,0,0,.76.29,5,5,0,0,0,1.1.11A5.15,5.15,0,0,0,99.42,72a2.7,2.7,0,0,0,.82-.32,1.52,1.52,0,0,0,.52-.48A1.15,1.15,0,0,0,100.94,70.56Zm-2.73-4.68a2.3,2.3,0,0,0,.81-.13,1.61,1.61,0,0,0,.58-.35,1.54,1.54,0,0,0,.36-.55,2,2,0,0,0,.12-.7,1.67,1.67,0,0,0-.48-1.26,2.31,2.31,0,0,0-2.79,0,1.67,1.67,0,0,0-.48,1.26,2,2,0,0,0,.12.7,1.69,1.69,0,0,0,.36.55,1.65,1.65,0,0,0,.59.35A2.22,2.22,0,0,0,98.21,65.88Z"/><path class="cls-3" d="M105.48,61.48V67a2.27,2.27,0,0,0,.44,1.51,1.67,1.67,0,0,0,1.37.54,2.64,2.64,0,0,0,1.25-.32,3.8,3.8,0,0,0,1.07-.87V61.48h1.52v8.61h-.9a.38.38,0,0,1-.41-.32l-.12-.92a4.83,4.83,0,0,1-1.26,1,3.31,3.31,0,0,1-1.6.37A3,3,0,0,1,105.6,70a2.4,2.4,0,0,1-.91-.66,2.9,2.9,0,0,1-.55-1A4.6,4.6,0,0,1,104,67V61.48Z"/><path class="cls-3" d="M117.05,61.34a3.87,3.87,0,0,1,1.43.26,3.15,3.15,0,0,1,1.14.75,3.62,3.62,0,0,1,.76,1.21,4.6,4.6,0,0,1,.27,1.63,1,1,0,0,1-.08.48.32.32,0,0,1-.29.12h-5.75a4.65,4.65,0,0,0,.22,1.42,2.69,2.69,0,0,0,.56,1,2.34,2.34,0,0,0,.85.61,3,3,0,0,0,1.1.2,3.6,3.6,0,0,0,1-.13,5.48,5.48,0,0,0,.71-.29l.49-.28a.69.69,0,0,1,.35-.14.34.34,0,0,1,.29.15l.42.55a2.71,2.71,0,0,1-.67.59,3.63,3.63,0,0,1-.84.41,5.41,5.41,0,0,1-.92.25,6.07,6.07,0,0,1-.94.08,4.4,4.4,0,0,1-1.65-.3,3.77,3.77,0,0,1-1.3-.89,4.1,4.1,0,0,1-.85-1.44,5.7,5.7,0,0,1-.31-2,4.86,4.86,0,0,1,.28-1.68,4,4,0,0,1,.79-1.36,3.76,3.76,0,0,1,1.27-.9A4.13,4.13,0,0,1,117.05,61.34Zm0,1.12a2.33,2.33,0,0,0-1.73.63,3,3,0,0,0-.78,1.75h4.71a2.93,2.93,0,0,0-.15-1,2.46,2.46,0,0,0-.43-.76,2.06,2.06,0,0,0-.7-.49A2.25,2.25,0,0,0,117.09,62.46Z"/><path class="cls-3" d="M138.46,64a7,7,0,0,1-.43,2.51,5.8,5.8,0,0,1-1.22,2,5.45,5.45,0,0,1-1.9,1.28,6.49,6.49,0,0,1-2.46.46,6.39,6.39,0,0,1-2.44-.46,5.45,5.45,0,0,1-1.9-1.28,5.65,5.65,0,0,1-1.22-2,7.38,7.38,0,0,1,0-5,5.75,5.75,0,0,1,1.22-2,5.61,5.61,0,0,1,1.9-1.29,6.39,6.39,0,0,1,2.44-.46,6.49,6.49,0,0,1,2.46.46,5.61,5.61,0,0,1,1.9,1.29,5.9,5.9,0,0,1,1.22,2A7,7,0,0,1,138.46,64Zm-1.69,0a6.25,6.25,0,0,0-.3-2,4.37,4.37,0,0,0-.87-1.51,3.75,3.75,0,0,0-1.36-.95,4.64,4.64,0,0,0-1.79-.33,4.58,4.58,0,0,0-1.77.33,3.79,3.79,0,0,0-1.37.95,4.37,4.37,0,0,0-.87,1.51,6.88,6.88,0,0,0,0,4,4.37,4.37,0,0,0,.87,1.51,3.77,3.77,0,0,0,1.37.94,4.58,4.58,0,0,0,1.77.33,4.64,4.64,0,0,0,1.79-.33,3.73,3.73,0,0,0,1.36-.94,4.37,4.37,0,0,0,.87-1.51A6.25,6.25,0,0,0,136.77,64Z"/><path class="cls-3" d="M140.29,73V61.48h.91a.37.37,0,0,1,.4.31l.13,1A5,5,0,0,1,143,61.73a3.27,3.27,0,0,1,1.64-.41,3.11,3.11,0,0,1,1.35.29,2.86,2.86,0,0,1,1,.84,4,4,0,0,1,.65,1.38,7.22,7.22,0,0,1,.23,1.9,6,6,0,0,1-.25,1.77,4.26,4.26,0,0,1-.74,1.42,3.43,3.43,0,0,1-2.73,1.29,3.14,3.14,0,0,1-1.36-.27,3,3,0,0,1-1-.74V73Zm3.84-10.45a2.39,2.39,0,0,0-1.29.34,3.85,3.85,0,0,0-1,1V68a2.37,2.37,0,0,0,.91.79,2.51,2.51,0,0,0,1.11.23,2.18,2.18,0,0,0,1.85-.85,4,4,0,0,0,.65-2.45,6.15,6.15,0,0,0-.15-1.45,2.82,2.82,0,0,0-.43-1,1.68,1.68,0,0,0-.69-.56A2.27,2.27,0,0,0,144.13,62.55Z"/><path class="cls-3" d="M152.35,70.22a2.08,2.08,0,0,1-1.56-.56,2.27,2.27,0,0,1-.55-1.65V62.74h-1a.31.31,0,0,1-.23-.08.3.3,0,0,1-.09-.25v-.6l1.41-.18.35-2.66a.33.33,0,0,1,.34-.29h.77v3h5.95v8.44h-1.51V62.74h-4.44v5.17a1.12,1.12,0,0,0,.26.81.92.92,0,0,0,.68.26,1.33,1.33,0,0,0,.42-.06,2.09,2.09,0,0,0,.3-.14l.21-.14a.32.32,0,0,1,.16-.06.24.24,0,0,1,.21.14l.45.72a2.86,2.86,0,0,1-.95.58A3.19,3.19,0,0,1,152.35,70.22Zm5.72-11.5a1.05,1.05,0,0,1-.32.74,1,1,0,0,1-.35.23,1,1,0,0,1-.41.09,1,1,0,0,1-.42-.09.94.94,0,0,1-.33-.23.86.86,0,0,1-.23-.33,1,1,0,0,1-.09-.41,1.07,1.07,0,0,1,.09-.43,1,1,0,0,1,.23-.34,1.12,1.12,0,0,1,.33-.24,1.16,1.16,0,0,1,.42-.08,1.15,1.15,0,0,1,.41.08,1.21,1.21,0,0,1,.35.24,1.13,1.13,0,0,1,.23.34A1.07,1.07,0,0,1,158.07,58.72Z"/><path class="cls-3" d="M160.18,70.09V61.48h.91a.37.37,0,0,1,.4.31l.11.89a4.59,4.59,0,0,1,1.07-1,2.55,2.55,0,0,1,1.38-.38,2,2,0,0,1,1.41.49,2.64,2.64,0,0,1,.77,1.31,2.89,2.89,0,0,1,.48-.81,2.66,2.66,0,0,1,.66-.56,3,3,0,0,1,.78-.33,3.94,3.94,0,0,1,.84-.1,3.11,3.11,0,0,1,1.21.22,2.37,2.37,0,0,1,.9.63,2.78,2.78,0,0,1,.57,1,4.49,4.49,0,0,1,.19,1.39v5.48h-1.52V64.61a2.36,2.36,0,0,0-.44-1.54,1.58,1.58,0,0,0-1.28-.52,1.9,1.9,0,0,0-.71.13,1.72,1.72,0,0,0-1,1,2.5,2.5,0,0,0-.15.9v5.48h-1.52V64.61a2.39,2.39,0,0,0-.42-1.55,1.47,1.47,0,0,0-1.21-.51,1.91,1.91,0,0,0-1,.3,3.55,3.55,0,0,0-.88.82v6.42Z"/><path class="cls-3" d="M176.09,58.78a1,1,0,0,1-.09.41,1.31,1.31,0,0,1-.24.34,1.18,1.18,0,0,1-.35.23,1,1,0,0,1-.42.09.91.91,0,0,1-.41-.09,1.13,1.13,0,0,1-.34-.23,1.27,1.27,0,0,1-.23-.34,1,1,0,0,1-.08-.41,1.06,1.06,0,0,1,.08-.43,1.13,1.13,0,0,1,.23-.34,1.16,1.16,0,0,1,.34-.24,1.07,1.07,0,0,1,.41-.08,1.16,1.16,0,0,1,.42.08,1.21,1.21,0,0,1,.35.24,1.16,1.16,0,0,1,.24.34A1.07,1.07,0,0,1,176.09,58.78Zm-.33,2.7v8.61h-1.51V61.48Z"/><path class="cls-3" d="M184.18,62.12a.86.86,0,0,1-.05.32.93.93,0,0,1-.15.26l-4.66,6.21H184v1.18h-6.48v-.63a1,1,0,0,1,.05-.26,1.08,1.08,0,0,1,.15-.28l4.69-6.25H177.8V61.48h6.38Z"/><path class="cls-3" d="M189.29,61.34a4,4,0,0,1,1.44.26,3.11,3.11,0,0,1,1.13.75,3.47,3.47,0,0,1,.76,1.21,4.6,4.6,0,0,1,.27,1.63,1,1,0,0,1-.08.48.31.31,0,0,1-.29.12h-5.75a4.65,4.65,0,0,0,.22,1.42,2.84,2.84,0,0,0,.56,1,2.34,2.34,0,0,0,.85.61,3,3,0,0,0,1.11.2,3.53,3.53,0,0,0,1-.13,5.48,5.48,0,0,0,.71-.29c.2-.1.36-.2.49-.28a.69.69,0,0,1,.35-.14.34.34,0,0,1,.29.15l.42.55a2.54,2.54,0,0,1-.67.59,3.63,3.63,0,0,1-.84.41,5.41,5.41,0,0,1-.92.25,6,6,0,0,1-.94.08,4.44,4.44,0,0,1-1.65-.3,3.77,3.77,0,0,1-1.3-.89,4.1,4.1,0,0,1-.85-1.44,5.94,5.94,0,0,1-.31-2,5.1,5.1,0,0,1,.28-1.68,4,4,0,0,1,.79-1.36,3.76,3.76,0,0,1,1.27-.9A4.13,4.13,0,0,1,189.29,61.34Zm0,1.12a2.34,2.34,0,0,0-1.73.63,3,3,0,0,0-.78,1.75h4.71a2.93,2.93,0,0,0-.15-1,2.27,2.27,0,0,0-.43-.76,2,2,0,0,0-.7-.49A2.25,2.25,0,0,0,189.33,62.46Z"/><path class="cls-3" d="M194.74,70.09V61.48h.87a.5.5,0,0,1,.34.09.64.64,0,0,1,.13.32l.09,1.31a3.81,3.81,0,0,1,1-1.38,2.21,2.21,0,0,1,1.46-.5,2.24,2.24,0,0,1,.52.06,1.58,1.58,0,0,1,.44.19l-.11,1.13a.24.24,0,0,1-.25.21,1.37,1.37,0,0,1-.35,0,2.7,2.7,0,0,0-.52,0,1.9,1.9,0,0,0-.73.13,1.75,1.75,0,0,0-.57.35,2.42,2.42,0,0,0-.45.58,4.75,4.75,0,0,0-.36.78v5.44Z"/><polygon class="cls-3" points="129.91 63.32 131.69 63.32 138.68 54.61 133.57 65.95 131.66 65.83 125.44 71.95 129.91 63.32"/><path class="cls-4" d="M136.62,58l-3.36,7.45-1.79-.12-4.14,4.08,2.88-5.57h1.72L136.62,58m4.13-6.74-4.91,6.11-4.39,5.47h-1.84l-.28.54-2.89,5.57-2.89,5.58L128,70.1l3.82-3.76,1.34.09.7,0,.28-.63,3.36-7.45,3.22-7.15Z"/><rect class="cls-1" x="126.55" y="17.32" width="9.52" height="19.38" transform="translate(262.63 54.02) rotate(-180)"/><rect class="cls-1" x="133.22" y="21.3" width="2.86" height="11.43"/></svg>