<svg id="Layer_1" data-name="Layer 1" xmlns="http://www.w3.org/2000/svg" viewBox="0 0 210.3 79.49"><defs><style>.cls-1{fill:none;}.cls-1,.cls-2{stroke:#222f3e;}.cls-1,.cls-2,.cls-3{stroke-miterlimit:10;}.cls-2,.cls-6{fill:#fff;}.cls-3,.cls-5{fill:#11ad85;}.cls-3{stroke:#fff;}.cls-4{fill:#222f3e;}</style></defs><rect class="cls-1" x="67.57" y="6.47" width="68.59" height="41.07" rx="6.41"/><line class="cls-1" x1="101.86" y1="47.33" x2="101.86" y2="6.69"/><circle class="cls-2" cx="101.86" cy="27.01" r="8.26"/><rect class="cls-1" x="67.57" y="17.32" width="9.52" height="19.38"/><rect class="cls-1" x="67.57" y="21.29" width="2.86" height="11.43"/><polygon class="cls-3" points="98.41 25.71 101.04 25.71 110.38 14.08 103.59 29.15 100.79 28.97 92.5 37.12 98.41 25.71"/><path class="cls-4" d="M16.86,57.91v1.34H11v4.26h5v1.34H11v5.24H9.36V57.91Z"/><path class="cls-4" d="M22.88,70.09a.8.8,0,0,1-.34-.07.57.57,0,0,1-.19-.29l-.17-.81a6.87,6.87,0,0,1-.66.55,4.23,4.23,0,0,1-.68.41,4,4,0,0,1-.76.26,3.92,3.92,0,0,1-.9.08,3,3,0,0,1-.94-.14,2.22,2.22,0,0,1-.77-.42A1.94,1.94,0,0,1,17,69a2.65,2.65,0,0,1-.19-1A1.93,1.93,0,0,1,17,67a2.45,2.45,0,0,1,.91-.84,6.1,6.1,0,0,1,1.64-.6A11.56,11.56,0,0,1,22,65.29v-.67a2.3,2.3,0,0,0-.43-1.52,1.56,1.56,0,0,0-1.27-.51,2.72,2.72,0,0,0-.94.14,3.87,3.87,0,0,0-.65.31l-.48.32a.69.69,0,0,1-.39.14.5.5,0,0,1-.26-.08.61.61,0,0,1-.19-.2l-.27-.49a4.76,4.76,0,0,1,1.54-1,4.57,4.57,0,0,1,1.82-.35,3.18,3.18,0,0,1,1.29.24,2.61,2.61,0,0,1,.94.67,2.79,2.79,0,0,1,.58,1,4.28,4.28,0,0,1,.19,1.33v5.51Zm-3.25-.93a2.63,2.63,0,0,0,.74-.08,2.72,2.72,0,0,0,.62-.23,3,3,0,0,0,.56-.36,6,6,0,0,0,.52-.49V66.21a13.24,13.24,0,0,0-1.78.17,4.91,4.91,0,0,0-1.19.34,1.7,1.7,0,0,0-.68.5,1.16,1.16,0,0,0-.2.65,1.35,1.35,0,0,0,.11.59,1,1,0,0,0,.3.4,1.13,1.13,0,0,0,.45.23A2,2,0,0,0,19.63,69.16Z"/><path class="cls-4" d="M25.86,70.09V61.48h.91a.39.39,0,0,1,.4.31l.11.94a4.88,4.88,0,0,1,1.26-1,3.35,3.35,0,0,1,1.61-.38,2.92,2.92,0,0,1,1.24.24,2.37,2.37,0,0,1,.91.66,2.85,2.85,0,0,1,.54,1A4.45,4.45,0,0,1,33,64.61v5.48H31.51V64.61a2.31,2.31,0,0,0-.45-1.52,1.64,1.64,0,0,0-1.35-.54,2.69,2.69,0,0,0-1.27.32,4.08,4.08,0,0,0-1.06.88v6.34Z"/><path class="cls-4" d="M37.87,70.22a2.07,2.07,0,0,1-1.57-.56A2.25,2.25,0,0,1,35.75,68V62.74h-1a.32.32,0,0,1-.23-.08.29.29,0,0,1-.09-.25v-.6l1.41-.18L36.15,59a.45.45,0,0,1,.12-.21.32.32,0,0,1,.23-.08h.76v3h2.49V62.8H37.26V68a1,1,0,0,0,.27.81.91.91,0,0,0,.68.26,1.4,1.4,0,0,0,.41-.06,1,1,0,0,0,.3-.14l.22-.14a.25.25,0,0,1,.16-.06.26.26,0,0,1,.21.14l.44.72a2.63,2.63,0,0,1-1,.5A3.11,3.11,0,0,1,37.87,70.22Z"/><path class="cls-4" d="M46.79,70.09a.8.8,0,0,1-.34-.07.47.47,0,0,1-.18-.29l-.17-.81a7,7,0,0,1-.67.55,4.23,4.23,0,0,1-.68.41,4,4,0,0,1-.76.26,3.92,3.92,0,0,1-.9.08,3,3,0,0,1-.94-.14,2.22,2.22,0,0,1-.77-.42,1.92,1.92,0,0,1-.52-.71,2.65,2.65,0,0,1-.19-1A1.9,1.9,0,0,1,41,67a2.45,2.45,0,0,1,.91-.84,6.1,6.1,0,0,1,1.64-.6A11.82,11.82,0,0,1,46,65.25v-.67a2.3,2.3,0,0,0-.43-1.52,1.56,1.56,0,0,0-1.27-.51,2.66,2.66,0,0,0-.93.14,3.31,3.31,0,0,0-.66.31l-.48.32a.69.69,0,0,1-.39.14.5.5,0,0,1-.26-.08.61.61,0,0,1-.19-.2l-.27-.49a4.76,4.76,0,0,1,1.54-1,4.57,4.57,0,0,1,1.82-.35,3.18,3.18,0,0,1,1.29.24,2.61,2.61,0,0,1,.94.67,2.79,2.79,0,0,1,.58,1,4.28,4.28,0,0,1,.19,1.33v5.51Zm-3.25-.93a2.63,2.63,0,0,0,.74-.08,2.72,2.72,0,0,0,.62-.23,3,3,0,0,0,.56-.36A6.28,6.28,0,0,0,46,68V66.21a13.24,13.24,0,0,0-1.78.17,4.91,4.91,0,0,0-1.19.34,1.7,1.7,0,0,0-.68.5,1.16,1.16,0,0,0-.2.65,1.35,1.35,0,0,0,.11.59,1,1,0,0,0,.3.4,1.13,1.13,0,0,0,.45.23A1.88,1.88,0,0,0,43.54,69.16Z"/><path class="cls-4" d="M54.78,62.9a.32.32,0,0,1-.31.18.62.62,0,0,1-.29-.09l-.4-.21a5.2,5.2,0,0,0-.55-.21,2.86,2.86,0,0,0-.77-.1,2.3,2.3,0,0,0-.69.1,1.72,1.72,0,0,0-.52.27,1.23,1.23,0,0,0-.33.39,1,1,0,0,0-.12.49.8.8,0,0,0,.2.55,1.58,1.58,0,0,0,.5.39,6.15,6.15,0,0,0,.71.28l.83.27a8.11,8.11,0,0,1,.82.31,3.4,3.4,0,0,1,.71.42,1.83,1.83,0,0,1,.7,1.51,2.61,2.61,0,0,1-.22,1.1,2.41,2.41,0,0,1-.63.88,2.79,2.79,0,0,1-1,.58,4.12,4.12,0,0,1-1.39.21,4.31,4.31,0,0,1-1.63-.29,3.75,3.75,0,0,1-1.24-.75l.35-.58a.46.46,0,0,1,.4-.23.55.55,0,0,1,.33.12l.41.26a3.15,3.15,0,0,0,.59.27,2.58,2.58,0,0,0,.87.12,2.53,2.53,0,0,0,.77-.12,1.5,1.5,0,0,0,.55-.31,1.22,1.22,0,0,0,.33-.45,1.41,1.41,0,0,0,.11-.54.91.91,0,0,0-.19-.59,1.54,1.54,0,0,0-.51-.4,3.74,3.74,0,0,0-.72-.29l-.82-.26c-.28-.09-.56-.2-.83-.31a3,3,0,0,1-.72-.44,2,2,0,0,1-.5-.65,2,2,0,0,1-.19-.94,2.31,2.31,0,0,1,.8-1.75,3,3,0,0,1,1-.54,3.62,3.62,0,0,1,1.3-.21,3.93,3.93,0,0,1,1.52.27,3.84,3.84,0,0,1,1.17.73Z"/><path class="cls-4" d="M59.6,72.63a.83.83,0,0,1-.19.27.48.48,0,0,1-.35.1H57.94l1.57-3.41L56,61.48h1.31a.45.45,0,0,1,.31.1.47.47,0,0,1,.16.21L60,67.22a1.26,1.26,0,0,0,.13.37,2.36,2.36,0,0,1,.1.38c.08-.25.16-.51.26-.76l2.23-5.42a.55.55,0,0,1,.18-.22.47.47,0,0,1,.28-.09H64.4Z"/><path class="cls-4" d="M71.67,68.7h5.27v1.39H70V57.91h1.64Z"/><path class="cls-4" d="M81.31,61.34a3.89,3.89,0,0,1,1.43.26,3.1,3.1,0,0,1,1.14.75,3.46,3.46,0,0,1,.75,1.21,4.51,4.51,0,0,1,.28,1.63,1,1,0,0,1-.08.48.33.33,0,0,1-.29.12H78.79A4.88,4.88,0,0,0,79,67.21a2.61,2.61,0,0,0,.56,1,2.37,2.37,0,0,0,.85.61,3.15,3.15,0,0,0,1.1.2,3.39,3.39,0,0,0,1-.13,4.81,4.81,0,0,0,.71-.29c.2-.1.37-.2.5-.28a.64.64,0,0,1,.35-.14.3.3,0,0,1,.28.15l.43.55a2.9,2.9,0,0,1-.67.59,3.63,3.63,0,0,1-.84.41,6,6,0,0,1-.92.25,6.74,6.74,0,0,1-1,.08,4.37,4.37,0,0,1-1.64-.3,3.87,3.87,0,0,1-1.3-.89,4,4,0,0,1-.85-1.44,5.66,5.66,0,0,1-.31-2,4.82,4.82,0,0,1,.28-1.68,4,4,0,0,1,.79-1.36,3.78,3.78,0,0,1,1.27-.9A4.22,4.22,0,0,1,81.31,61.34Zm0,1.12a2.32,2.32,0,0,0-1.72.63,3,3,0,0,0-.78,1.75h4.71a2.82,2.82,0,0,0-.15-1,2.4,2.4,0,0,0-.44-.76,2,2,0,0,0-.69-.49,2.29,2.29,0,0,0-.9-.13Z"/><path class="cls-4" d="M92.23,70.09a.8.8,0,0,1-.34-.07.47.47,0,0,1-.18-.29l-.17-.81a7,7,0,0,1-.67.55,4.23,4.23,0,0,1-.68.41,4,4,0,0,1-.76.26,3.78,3.78,0,0,1-.89.08,3.06,3.06,0,0,1-1-.14,2.22,2.22,0,0,1-.77-.42A1.94,1.94,0,0,1,86.3,69a2.65,2.65,0,0,1-.19-1,2,2,0,0,1,.28-1,2.45,2.45,0,0,1,.91-.84,6.1,6.1,0,0,1,1.64-.6,11.58,11.58,0,0,1,2.49-.27v-.67A2.3,2.3,0,0,0,91,63.06a1.57,1.57,0,0,0-1.26-.51,2.72,2.72,0,0,0-.94.14,4,4,0,0,0-.66.31c-.18.12-.34.22-.47.32a.84.84,0,0,1-.4.14.5.5,0,0,1-.26-.08.61.61,0,0,1-.19-.2l-.27-.49a4.76,4.76,0,0,1,1.54-1,4.57,4.57,0,0,1,1.82-.35,3.18,3.18,0,0,1,1.29.24,2.61,2.61,0,0,1,.94.67,2.79,2.79,0,0,1,.58,1,4.28,4.28,0,0,1,.19,1.33v5.51ZM89,69.16a2.56,2.56,0,0,0,.73-.08,2.72,2.72,0,0,0,.62-.23,3,3,0,0,0,.56-.36c.18-.15.35-.31.53-.49V66.21a13.39,13.39,0,0,0-1.79.17,4.91,4.91,0,0,0-1.19.34,1.7,1.7,0,0,0-.68.5,1.16,1.16,0,0,0-.2.65,1.35,1.35,0,0,0,.11.59,1,1,0,0,0,.3.4,1.13,1.13,0,0,0,.45.23A2.1,2.1,0,0,0,89,69.16Z"/><path class="cls-4" d="M98.21,61.33a3.76,3.76,0,0,1,1,.13,3.26,3.26,0,0,1,.89.36h2.33v.56c0,.19-.11.31-.35.36l-1,.13a2.75,2.75,0,0,1,.29,1.23,2.58,2.58,0,0,1-.91,2,2.9,2.9,0,0,1-1,.56,4.62,4.62,0,0,1-2.44,0,1.32,1.32,0,0,0-.41.37.59.59,0,0,0-.14.38.5.5,0,0,0,.25.46,1.73,1.73,0,0,0,.66.23,7.3,7.3,0,0,0,.93.08l1.07.06a9.47,9.47,0,0,1,1.07.13,3.07,3.07,0,0,1,.93.3,1.87,1.87,0,0,1,.66.59,1.68,1.68,0,0,1,.25,1,2.25,2.25,0,0,1-.28,1.07,2.79,2.79,0,0,1-.79.92A4.16,4.16,0,0,1,100,73a5.42,5.42,0,0,1-1.7.24A6.23,6.23,0,0,1,96.64,73a3.8,3.8,0,0,1-1.17-.5,2.29,2.29,0,0,1-.7-.72,1.74,1.74,0,0,1-.23-.87,1.58,1.58,0,0,1,.39-1.08,2.69,2.69,0,0,1,1.09-.7,1.69,1.69,0,0,1-.6-.46,1.18,1.18,0,0,1-.22-.77,1,1,0,0,1,.07-.38,1.18,1.18,0,0,1,.21-.4,2,2,0,0,1,.34-.37,1.75,1.75,0,0,1,.48-.32,2.53,2.53,0,0,1-1-1A2.59,2.59,0,0,1,95.19,63a2.48,2.48,0,0,1,.67-.87,2.9,2.9,0,0,1,1-.56A4.41,4.41,0,0,1,98.21,61.33Zm2.73,9.23a.73.73,0,0,0-.18-.51,1.17,1.17,0,0,0-.48-.31,3.38,3.38,0,0,0-.7-.16l-.85-.07-.9-.05a2.9,2.9,0,0,1-.89-.09,2.39,2.39,0,0,0-.78.56,1.1,1.1,0,0,0-.3.79,1,1,0,0,0,.15.54,1.26,1.26,0,0,0,.46.43,2.91,2.91,0,0,0,.76.29,5.07,5.07,0,0,0,1.1.11A5,5,0,0,0,99.42,72a2.64,2.64,0,0,0,.82-.32,1.5,1.5,0,0,0,.52-.48A1.19,1.19,0,0,0,100.94,70.56Zm-2.73-4.68a2.22,2.22,0,0,0,.81-.13,1.51,1.51,0,0,0,.58-.35,1.54,1.54,0,0,0,.36-.55,2.06,2.06,0,0,0,.12-.7,1.68,1.68,0,0,0-.48-1.26,2.3,2.3,0,0,0-2.79,0,1.68,1.68,0,0,0-.48,1.26,2.06,2.06,0,0,0,.12.7,1.69,1.69,0,0,0,.36.55,1.54,1.54,0,0,0,.59.35A2.22,2.22,0,0,0,98.21,65.88Z"/><path class="cls-4" d="M105.48,61.48V67a2.26,2.26,0,0,0,.44,1.51,1.68,1.68,0,0,0,1.37.54,2.58,2.58,0,0,0,1.25-.32,3.76,3.76,0,0,0,1.07-.87V61.48h1.52v8.61h-.9a.38.38,0,0,1-.41-.32l-.12-.92a4.88,4.88,0,0,1-1.26,1,3.28,3.28,0,0,1-1.6.37A2.93,2.93,0,0,1,105.6,70a2.37,2.37,0,0,1-.91-.66,2.88,2.88,0,0,1-.55-1A4.67,4.67,0,0,1,104,67V61.48Z"/><path class="cls-4" d="M117.05,61.34a3.89,3.89,0,0,1,1.43.26,3.1,3.1,0,0,1,1.14.75,3.64,3.64,0,0,1,.76,1.21,4.5,4.5,0,0,1,.27,1.63,1,1,0,0,1-.08.48.33.33,0,0,1-.29.12h-5.75a4.58,4.58,0,0,0,.22,1.42,2.61,2.61,0,0,0,.56,1,2.37,2.37,0,0,0,.85.61,3.15,3.15,0,0,0,1.1.2,3.76,3.76,0,0,0,1-.13,6.22,6.22,0,0,0,.71-.29l.49-.28a.64.64,0,0,1,.35-.14.33.33,0,0,1,.29.15l.42.55a2.9,2.9,0,0,1-.67.59,3.63,3.63,0,0,1-.84.41,5.26,5.26,0,0,1-1.86.33,4.46,4.46,0,0,1-1.65-.3,3.87,3.87,0,0,1-1.3-.89,4.13,4.13,0,0,1-.85-1.44,5.66,5.66,0,0,1-.31-2,4.82,4.82,0,0,1,.28-1.68,4,4,0,0,1,.79-1.36,3.78,3.78,0,0,1,1.27-.9A4.15,4.15,0,0,1,117.05,61.34Zm0,1.12a2.31,2.31,0,0,0-1.73.63,3,3,0,0,0-.78,1.75h4.71a2.82,2.82,0,0,0-.15-1,2.49,2.49,0,0,0-.43-.76,2,2,0,0,0-.7-.49,2.19,2.19,0,0,0-.88-.13Z"/><path class="cls-4" d="M138.46,64a6.91,6.91,0,0,1-.43,2.51,5.89,5.89,0,0,1-1.22,2,5.45,5.45,0,0,1-1.9,1.28,6.47,6.47,0,0,1-2.46.46,6.37,6.37,0,0,1-2.44-.46,5.45,5.45,0,0,1-1.9-1.28,5.65,5.65,0,0,1-1.22-2,7.4,7.4,0,0,1,0-5,5.89,5.89,0,0,1,1.22-2,5.48,5.48,0,0,1,1.9-1.29,6.37,6.37,0,0,1,2.44-.46,6.47,6.47,0,0,1,2.46.46,5.48,5.48,0,0,1,1.9,1.29,5.89,5.89,0,0,1,1.22,2A7.06,7.06,0,0,1,138.46,64Zm-1.69,0a6.18,6.18,0,0,0-.3-2,4.38,4.38,0,0,0-.87-1.51,3.8,3.8,0,0,0-1.36-1,4.59,4.59,0,0,0-1.79-.33,4.45,4.45,0,0,0-1.77.33,3.84,3.84,0,0,0-1.37,1,4.38,4.38,0,0,0-.87,1.51,6.82,6.82,0,0,0,0,4,4.38,4.38,0,0,0,.87,1.51,3.82,3.82,0,0,0,1.37.94,4.45,4.45,0,0,0,1.77.33,4.59,4.59,0,0,0,1.79-.33,3.78,3.78,0,0,0,1.36-.94,4.38,4.38,0,0,0,.87-1.51A6.18,6.18,0,0,0,136.77,64Z"/><path class="cls-4" d="M140.29,73V61.48h.91a.37.37,0,0,1,.4.31l.13,1A5,5,0,0,1,143,61.73a3.25,3.25,0,0,1,1.64-.41,3,3,0,0,1,1.35.29,2.9,2.9,0,0,1,1,.84,4.07,4.07,0,0,1,.65,1.38,7.17,7.17,0,0,1,.23,1.9,5.87,5.87,0,0,1-.25,1.77,4.19,4.19,0,0,1-.74,1.42,3.41,3.41,0,0,1-2.73,1.29,3.18,3.18,0,0,1-1.36-.27,3,3,0,0,1-1-.74V73Zm3.84-10.45a2.44,2.44,0,0,0-1.29.34,4,4,0,0,0-1,1V68a2.32,2.32,0,0,0,.91.79,2.51,2.51,0,0,0,1.11.23,2.18,2.18,0,0,0,1.85-.85,4,4,0,0,0,.65-2.45,5.91,5.91,0,0,0-.15-1.45,2.79,2.79,0,0,0-.43-1,1.64,1.64,0,0,0-.69-.56,2.23,2.23,0,0,0-1-.16Z"/><path class="cls-4" d="M152.35,70.22a2.08,2.08,0,0,1-1.56-.56,2.27,2.27,0,0,1-.55-1.65V62.74h-1a.29.29,0,0,1-.23-.08.29.29,0,0,1-.09-.25v-.6l1.41-.18.35-2.66a.33.33,0,0,1,.34-.29h.77v3h6v8.44h-1.51V62.74h-4.44v5.17a1.15,1.15,0,0,0,.26.81.91.91,0,0,0,.68.26,1.52,1.52,0,0,0,.42-.06l.3-.14.21-.14a.44.44,0,0,1,.16-.06.24.24,0,0,1,.21.14l.45.72a3,3,0,0,1-.95.58A3.19,3.19,0,0,1,152.35,70.22Zm5.72-11.5a1,1,0,0,1-.32.74,1,1,0,0,1-.35.23,1,1,0,0,1-.41.09,1,1,0,0,1-.42-.09,1.14,1.14,0,0,1-.56-.56,1,1,0,0,1-.09-.41,1.07,1.07,0,0,1,.09-.43,1,1,0,0,1,.23-.34,1.12,1.12,0,0,1,.33-.24,1.2,1.2,0,0,1,.42-.08,1.15,1.15,0,0,1,.41.08,1.21,1.21,0,0,1,.35.24,1.13,1.13,0,0,1,.23.34A1.07,1.07,0,0,1,158.07,58.72Z"/><path class="cls-4" d="M160.18,70.09V61.48h.91a.37.37,0,0,1,.4.31l.11.89a4.42,4.42,0,0,1,1.07-1,2.48,2.48,0,0,1,1.38-.38,2,2,0,0,1,1.41.49,2.62,2.62,0,0,1,.77,1.31,2.89,2.89,0,0,1,.48-.81,2.73,2.73,0,0,1,.66-.56,2.82,2.82,0,0,1,.78-.33,4,4,0,0,1,.84-.1,3.13,3.13,0,0,1,1.21.22,2.37,2.37,0,0,1,.9.63,2.77,2.77,0,0,1,.57,1,4.36,4.36,0,0,1,.19,1.39V70h-1.52V64.61a2.36,2.36,0,0,0-.44-1.54,1.59,1.59,0,0,0-1.28-.52,1.94,1.94,0,0,0-.71.13,1.7,1.7,0,0,0-1,1,2.5,2.5,0,0,0-.15.9v5.48h-1.52V64.61a2.43,2.43,0,0,0-.42-1.55,1.47,1.47,0,0,0-1.21-.51,2,2,0,0,0-1,.3,3.44,3.44,0,0,0-.88.82v6.42Z"/><path class="cls-4" d="M176.09,58.78a1,1,0,0,1-.09.41,1.16,1.16,0,0,1-.24.34,1.18,1.18,0,0,1-.35.23,1,1,0,0,1-.42.09,1,1,0,0,1-.41-.09,1.13,1.13,0,0,1-.34-.23,1.36,1.36,0,0,1-.23-.34,1,1,0,0,1-.08-.41,1.06,1.06,0,0,1,.08-.43,1.13,1.13,0,0,1,.23-.34,1.16,1.16,0,0,1,.34-.24,1.15,1.15,0,0,1,.41-.08,1,1,0,0,1,.77.32,1.16,1.16,0,0,1,.24.34A1.07,1.07,0,0,1,176.09,58.78Zm-.33,2.7v8.61h-1.51V61.48Z"/><path class="cls-4" d="M184.18,62.12a.86.86,0,0,1-.05.32,1.35,1.35,0,0,1-.15.26l-4.66,6.21H184v1.18h-6.48v-.63a1.09,1.09,0,0,1,0-.26,1.51,1.51,0,0,1,.15-.28l4.69-6.25H177.8V61.48h6.38Z"/><path class="cls-4" d="M189.29,61.34a4.17,4.17,0,0,1,1.44.26,3.07,3.07,0,0,1,1.13.75,3.64,3.64,0,0,1,.76,1.21,4.5,4.5,0,0,1,.27,1.63,1,1,0,0,1-.08.48.3.3,0,0,1-.29.12h-5.75a4.58,4.58,0,0,0,.22,1.42,2.9,2.9,0,0,0,.56,1,2.37,2.37,0,0,0,.85.61,3,3,0,0,0,1.11.2,3.76,3.76,0,0,0,1-.13,6.22,6.22,0,0,0,.71-.29c.2-.1.36-.2.49-.28a.64.64,0,0,1,.35-.14.33.33,0,0,1,.29.15l.42.55a2.71,2.71,0,0,1-.67.59,3.63,3.63,0,0,1-.84.41,5.26,5.26,0,0,1-1.86.33,4.46,4.46,0,0,1-1.65-.3,3.87,3.87,0,0,1-1.3-.89,4.13,4.13,0,0,1-.85-1.44,5.89,5.89,0,0,1-.31-2,5.06,5.06,0,0,1,.28-1.68,4,4,0,0,1,.79-1.36,3.78,3.78,0,0,1,1.27-.9A4.11,4.11,0,0,1,189.29,61.34Zm0,1.12a2.31,2.31,0,0,0-1.73.63,3,3,0,0,0-.78,1.75h4.71a2.82,2.82,0,0,0-.15-1,2.2,2.2,0,0,0-.43-.76,2,2,0,0,0-.7-.49,2.19,2.19,0,0,0-.88-.13Z"/><path class="cls-4" d="M194.74,70.09V61.48h.87a.52.52,0,0,1,.34.09.61.61,0,0,1,.13.32l.09,1.31a3.8,3.8,0,0,1,1-1.38,2.21,2.21,0,0,1,1.46-.5,2.24,2.24,0,0,1,.52.06,1.43,1.43,0,0,1,.44.19l-.11,1.13a.24.24,0,0,1-.25.21,2,2,0,0,1-.35,0,2.26,2.26,0,0,0-.52,0,1.82,1.82,0,0,0-.73.13,1.87,1.87,0,0,0-.57.35,2.32,2.32,0,0,0-.45.58,5.51,5.51,0,0,0-.36.78v5.44Z"/><polygon class="cls-5" points="129.91 63.32 131.69 63.32 138.68 54.61 133.57 65.95 131.66 65.83 125.44 71.95 129.91 63.32"/><path class="cls-6" d="M136.62,58l-3.36,7.45-1.79-.12-4.14,4.08,2.88-5.57h1.72L136.62,58m4.13-6.74-4.91,6.11-4.39,5.47h-1.84l-.28.54L126.44,69l-2.89,5.58L128,70.1l3.82-3.76,1.34.09h.7l.28-.63,3.36-7.45,3.22-7.15Z"/><rect class="cls-1" x="126.56" y="17.32" width="9.52" height="19.38"/><rect class="cls-1" x="133.22" y="21.3" width="2.86" height="11.43"/></svg>