<?xml version="1.0" encoding="utf-8"?>
<!-- Generator: Adobe Illustrator 24.2.1, SVG Export Plug-In . SVG Version: 6.00 Build 0)  -->
<svg version="1.1" id="Layer_1" xmlns="http://www.w3.org/2000/svg" xmlns:xlink="http://www.w3.org/1999/xlink" x="0px" y="0px"
	 viewBox="0 0 2160 1380" style="enable-background:new 0 0 2160 1380;" xml:space="preserve">
<style type="text/css">
	.st0{clip-path:url(#SVGID_2_);}
	.st1{clip-path:url(#SVGID_4_);}
	.st2{fill:#11AD85;}
	.st3{opacity:0.1;}
	.st4{fill-rule:evenodd;clip-rule:evenodd;}
	.st5{clip-path:url(#SVGID_6_);}
	.st6{fill:#CECECE;}
	.st7{clip-path:url(#SVGID_8_);}
	.st8{clip-path:url(#SVGID_10_);}
	.st9{fill:#222F3E;}
	.st10{clip-path:url(#SVGID_12_);}
	.st11{clip-path:url(#SVGID_14_);}
	.st12{clip-path:url(#SVGID_16_);}
	.st13{clip-path:url(#SVGID_18_);}
	.st14{clip-path:url(#SVGID_20_);}
	.st15{fill:none;stroke:#222F3E;stroke-width:7.89;stroke-miterlimit:10;}
</style>
<g id="Pitch_Layers">
	<g id="Pitch_Markings">
		<g>
			<g>
				<defs>
					<polygon id="SVGID_1_" points="37.6,1380.2 402.9,130.1 1755.4,130.1 2120.6,1380.2 					"/>
				</defs>
				<clipPath id="SVGID_2_">
					<use xlink:href="#SVGID_1_"  style="overflow:visible;"/>
				</clipPath>
				<g class="st0">
					<g>
						<defs>
							<polyline id="SVGID_3_" points="402.9,130.1 37.6,1380.2 2120.6,1380.2 1755.4,130.1 402.9,130.1 							"/>
						</defs>
						<clipPath id="SVGID_4_">
							<use xlink:href="#SVGID_3_"  style="overflow:visible;"/>
						</clipPath>
						<g class="st1">
							<path class="st2" d="M1755.4,130.1H402.9L37.6,1380.2h7.9l59.3-204.7h735.4c-1.2,22.3,1.9,44.5,8.9,65.7
								c7.1,21.4,17.9,41.4,31.9,59.1c14.7,18.6,32.2,34.8,51.9,47.9c21,14,44,24.8,68.2,32h36.9c-27.5-4.3-54.1-13.1-78.7-26
								c-22.9-12-43.6-27.9-61.2-46.9c-16.6-17.9-29.6-38.8-38.3-61.6c-8.6-22.4-12.4-46.3-11.2-70.2h204.8c0.5,2.7,1.5,5.3,3,7.6
								c1.6,2.4,3.5,4.4,5.8,6.1c2.4,1.8,5.1,3.1,7.9,4.1c6.1,2,12.7,2,18.8,0c2.8-0.9,5.5-2.3,7.9-4.1c2.3-1.7,4.2-3.7,5.8-6.1
								c1.5-2.3,2.5-4.9,3-7.6h204.8c1.2,23.9-2.6,47.8-11.2,70.2c-8.7,22.8-21.7,43.7-38.3,61.6c-17.5,19-38.2,34.9-61.1,46.9
								c-24.6,12.9-51.2,21.7-78.6,26h36.9c24.2-7.2,47.2-18,68.2-32c19.7-13.1,37.3-29.3,51.9-47.9c14-17.7,24.8-37.7,31.9-59.1
								c7-21.2,10-43.4,8.9-65.7h735.4l59.4,204.7h6.8L1755.4,130.1z M1751.7,132.7l8.5,29.5c-6.5-0.3-13-1.3-19.3-3
								c-5.9-1.5-11.6-3.7-17-6.4c-4.8-2.4-9.3-5.5-13.2-9.1c-3.4-3-6.1-6.7-7.9-10.9h48.9V132.7z M911.6,132.7h335.7l3.6,49.3
								H908.1L911.6,132.7z M905.8,132.7l-4,52.9h355.4l-4-52.9h130l12.9,98.2H762.9l12.9-98.2H905.8z M1195.7,234.8
								c-4.7,7.8-10.9,14.6-18.1,20.2c-8.2,6.4-17.2,11.7-26.8,15.8c-10.8,4.6-22,8-33.5,10.3c-25,4.9-50.6,4.9-75.6,0
								c-11.5-2.3-22.7-5.7-33.5-10.3c-9.6-4-18.6-9.4-26.8-15.8c-7.2-5.6-13.3-12.5-18.1-20.2L1195.7,234.8z M407.3,132.7h49
								c-1.8,4.2-4.5,7.9-7.9,10.9c-3.9,3.6-8.4,6.7-13.2,9.1c-5.4,2.7-11.1,4.9-17,6.4c-6.3,1.7-12.8,2.7-19.4,3L407.3,132.7z
								 M1105.6,1168.3c-0.5-2.7-1.6-5.2-3.1-7.5c-1.6-2.3-3.5-4.4-5.8-6c-2.4-1.7-5-3.1-7.8-4c-3-0.9-6.1-1.4-9.2-1.4
								c-3.1,0-6.2,0.5-9.2,1.4c-2.8,0.9-5.4,2.2-7.8,4c-2.3,1.6-4.2,3.7-5.8,6c-1.5,2.3-2.6,4.8-3.1,7.5H849.3
								c2.4-26.2,10.6-51.6,23.9-74.3c12.9-22.2,30.5-41.8,51.3-58.2c21.3-16.6,45.3-29.5,70.9-38.1c27.1-9.2,55.6-13.8,84.2-13.7
								c28.6,0,57.1,4.6,84.2,13.7c25.6,8.6,49.6,21.5,70.9,38.1c20.7,15.9,38.1,35.7,51.3,58.2c13.4,22.7,21.6,48.1,24,74.3
								L1105.6,1168.3z M1318.5,1168.3c-2.5-27.2-11-53.4-25-76.9c-13.8-23.2-31.9-43.7-53.3-60.2c-22.1-17.1-47-30.4-73.5-39.3
								c-28.1-9.4-57.5-14.2-87.1-14.2c-29.6-0.1-59,4.7-87.1,14.2c-26.5,8.9-51.4,22.2-73.5,39.3c-21.4,16.6-39.4,37-53.3,60.2
								c-13.9,23.5-22.4,49.7-25,76.9H107L397.7,165.7c7.4-0.3,14.7-1.4,21.8-3.3c6.6-1.7,13.1-4.1,19.2-7.2
								c5.4-2.7,10.4-6.1,14.8-10.2c3.8-3.4,6.8-7.6,8.8-12.3H770l-13.6,101.9h200.4c4.8,8.4,11.1,15.8,18.6,21.9
								c8.6,7,18.1,12.7,28.3,17.1c11.4,5,23.4,8.8,35.6,11.2c26.7,5.3,54.1,5.3,80.8,0c12.2-2.4,24.2-6.2,35.6-11.2
								c10.1-4.4,19.7-10.2,28.3-17.1c7.5-6.1,13.8-13.5,18.6-21.9H1403l-13.6-101.9H1697c2,4.7,4.9,8.9,8.7,12.3
								c4.4,4.1,9.4,7.5,14.7,10.2c6.1,3.1,12.5,5.5,19.1,7.2c7.1,1.9,14.4,3,21.7,3.3l291,1002.6L1318.5,1168.3z"/>
						</g>
					</g>
				</g>
			</g>
		</g>
	</g>
</g>
<g id="Goal">
	<g id="Goal_shad" class="st3">
		<polygon class="st4" points="892,73 922,130 1237,130 1267,73 		"/>
	</g>
	<g id="NET">
		<g>
			<defs>
				<rect id="SVGID_5_" x="927.5" y="17.7" width="304.5" height="114.9"/>
			</defs>
			<clipPath id="SVGID_6_">
				<use xlink:href="#SVGID_5_"  style="overflow:visible;"/>
			</clipPath>
			<g class="st5">
				<path class="st6" d="M928-2.7l9,4.9V12l-9,4.9l-9-4.9V2.2L928-2.7 M928-3.9l-10,5.5v11l10,5.5l10-5.5v-11L928-3.9z"/>
				<path class="st6" d="M947-2.7l9,4.9V12l-9,4.9l-9-4.9V2.2L947-2.7 M947-3.9l-10,5.5v11l10,5.5l10-5.5v-11L947-3.9z"/>
				<path class="st6" d="M966-2.7l9,4.9V12l-9,4.9l-9-4.9V2.2L966-2.7 M966-3.9l-10,5.5v11l10,5.5l10-5.5v-11L966-3.9z"/>
				<path class="st6" d="M985-2.7l9,4.9V12l-9,4.9l-9-4.9V2.2L985-2.7 M985-3.9l-10,5.5v11l10,5.5l10-5.5v-11L985-3.9z"/>
				<path class="st6" d="M1004-2.7l9,4.9V12l-9,4.9l-9-4.9V2.2L1004-2.7 M1004-3.9l-10,5.5v11l10,5.5l10-5.5v-11L1004-3.9z"/>
				<path class="st6" d="M1023-2.7l9,4.9V12l-9,4.9l-9-4.9V2.2L1023-2.7 M1023-3.9l-10,5.5v11l10,5.5l10-5.5v-11L1023-3.9z"/>
				<path class="st6" d="M1042-2.7l9,4.9V12l-9,4.9l-9-4.9V2.2L1042-2.7 M1042-3.9l-10,5.5v11l10,5.5l10-5.5v-11L1042-3.9z"/>
				<path class="st6" d="M1061-2.7l9,4.9V12l-9,4.9l-9-4.9V2.2L1061-2.7 M1061-3.9l-10,5.5v11l10,5.5l10-5.5v-11L1061-3.9z"/>
				<path class="st6" d="M1080-2.7l9,4.9V12l-9,4.9l-9-4.9V2.2L1080-2.7 M1080-3.9l-10,5.5v11l10,5.5l10-5.5v-11L1080-3.9z"/>
				<path class="st6" d="M1099-2.7l9,4.9V12l-9,4.9l-9-4.9V2.2L1099-2.7 M1099-3.9l-10,5.5v11l10,5.5l10-5.5v-11L1099-3.9z"/>
				<path class="st6" d="M1118-2.7l9,4.9V12l-9,4.9l-9-4.9V2.2L1118-2.7 M1118-3.9l-10,5.5v11l10,5.5l10-5.5v-11L1118-3.9z"/>
				<path class="st6" d="M1137-2.7l9,4.9V12l-9,4.9l-9-4.9V2.2L1137-2.7 M1137-3.9l-10,5.5v11l10,5.5l10-5.5v-11L1137-3.9z"/>
				<path class="st6" d="M1156-2.7l9,4.9V12l-9,4.9l-9-4.9V2.2L1156-2.7 M1156-3.9l-10,5.5v11l10,5.5l10-5.5v-11L1156-3.9z"/>
				<path class="st6" d="M1175-2.7l9,4.9V12l-9,4.9l-9-4.9V2.2L1175-2.7 M1175-3.9l-10,5.5v11l10,5.5l10-5.5v-11L1175-3.9z"/>
				<path class="st6" d="M1194-2.7l9,4.9V12l-9,4.9l-9-4.9V2.2L1194-2.7 M1194-3.9l-10,5.5v11l10,5.5l10-5.5v-11L1194-3.9z"/>
				<path class="st6" d="M1213-2.7l9,4.9V12l-9,4.9l-9-4.9V2.2L1213-2.7 M1213-3.9l-10,5.5v11l10,5.5l10-5.5v-11L1213-3.9z"/>
				<path class="st6" d="M1232-2.7l9,4.9V12l-9,4.9l-9-4.9V2.2L1232-2.7 M1232-3.9l-10,5.5v11l10,5.5l10-5.5v-11L1232-3.9z"/>
				<path class="st6" d="M1251-2.7l9,4.9V12l-9,4.9l-9-4.9V2.2L1251-2.7 M1251-3.9l-10,5.5v11l10,5.5l10-5.5v-11L1251-3.9z"/>
				<path class="st6" d="M1270-2.7l9,4.9V12l-9,4.9l-9-4.9V2.2L1270-2.7 M1270-3.9l-10,5.5v11l10,5.5l10-5.5v-11L1270-3.9z"/>
				<path class="st6" d="M1289-2.7l9,4.9V12l-9,4.9l-9-4.9V2.2L1289-2.7 M1289-3.9l-10,5.5v11l10,5.5l10-5.5v-11L1289-3.9z"/>
			</g>
		</g>
		<g>
			<defs>
				<rect id="SVGID_7_" x="927.5" y="17.7" width="304.5" height="114.9"/>
			</defs>
			<clipPath id="SVGID_8_">
				<use xlink:href="#SVGID_7_"  style="overflow:visible;"/>
			</clipPath>
			<g class="st7">
				<path class="st6" d="M937.5,13.3l9,4.9V28l-9,4.9l-9-4.9v-9.8L937.5,13.3 M937.5,12.2l-10,5.5v11l10,5.5l10-5.5v-11L937.5,12.2z
					"/>
				<path class="st6" d="M956.5,13.3l9,4.9V28l-9,4.9l-9-4.9v-9.8L956.5,13.3 M956.5,12.2l-10,5.5v11l10,5.5l10-5.5v-11L956.5,12.2z
					"/>
				<path class="st6" d="M975.5,13.3l9,4.9V28l-9,4.9l-9-4.9v-9.8L975.5,13.3 M975.5,12.2l-10,5.5v11l10,5.5l10-5.5v-11L975.5,12.2z
					"/>
				<path class="st6" d="M994.5,13.3l9,4.9V28l-9,4.9l-9-4.9v-9.8L994.5,13.3 M994.5,12.2l-10,5.5v11l10,5.5l10-5.5v-11L994.5,12.2z
					"/>
				<path class="st6" d="M1013.5,13.3l9,4.9V28l-9,4.9l-9-4.9v-9.8L1013.5,13.3 M1013.5,12.2l-10,5.5v11l10,5.5l10-5.5v-11
					L1013.5,12.2z"/>
				<path class="st6" d="M1032.5,13.3l9,4.9V28l-9,4.9l-9-4.9v-9.8L1032.5,13.3 M1032.5,12.2l-10,5.5v11l10,5.5l10-5.5v-11
					L1032.5,12.2z"/>
				<path class="st6" d="M1051.5,13.3l9,4.9V28l-9,4.9l-9-4.9v-9.8L1051.5,13.3 M1051.5,12.2l-10,5.5v11l10,5.5l10-5.5v-11
					L1051.5,12.2z"/>
				<path class="st6" d="M1070.5,13.3l9,4.9V28l-9,4.9l-9-4.9v-9.8L1070.5,13.3 M1070.5,12.2l-10,5.5v11l10,5.5l10-5.5v-11
					L1070.5,12.2z"/>
				<path class="st6" d="M1089.5,13.3l9,4.9V28l-9,4.9l-9-4.9v-9.8L1089.5,13.3 M1089.5,12.2l-10,5.5v11l10,5.5l10-5.5v-11
					L1089.5,12.2z"/>
				<path class="st6" d="M1108.5,13.3l9,4.9V28l-9,4.9l-9-4.9v-9.8L1108.5,13.3 M1108.5,12.2l-10,5.5v11l10,5.5l10-5.5v-11
					L1108.5,12.2z"/>
				<path class="st6" d="M1127.5,13.3l9,4.9V28l-9,4.9l-9-4.9v-9.8L1127.5,13.3 M1127.5,12.2l-10,5.5v11l10,5.5l10-5.5v-11
					L1127.5,12.2z"/>
				<path class="st6" d="M1146.5,13.3l9,4.9V28l-9,4.9l-9-4.9v-9.8L1146.5,13.3 M1146.5,12.2l-10,5.5v11l10,5.5l10-5.5v-11
					L1146.5,12.2z"/>
				<path class="st6" d="M1165.5,13.3l9,4.9V28l-9,4.9l-9-4.9v-9.8L1165.5,13.3 M1165.5,12.2l-10,5.5v11l10,5.5l10-5.5v-11
					L1165.5,12.2z"/>
				<path class="st6" d="M1184.5,13.3l9,4.9V28l-9,4.9l-9-4.9v-9.8L1184.5,13.3 M1184.5,12.2l-10,5.5v11l10,5.5l10-5.5v-11
					L1184.5,12.2z"/>
				<path class="st6" d="M1203.5,13.3l9,4.9V28l-9,4.9l-9-4.9v-9.8L1203.5,13.3 M1203.5,12.2l-10,5.5v11l10,5.5l10-5.5v-11
					L1203.5,12.2z"/>
				<path class="st6" d="M1222.5,13.3l9,4.9V28l-9,4.9l-9-4.9v-9.8L1222.5,13.3 M1222.5,12.2l-10,5.5v11l10,5.5l10-5.5v-11
					L1222.5,12.2z"/>
				<path class="st6" d="M1241.5,13.3l9,4.9V28l-9,4.9l-9-4.9v-9.8L1241.5,13.3 M1241.5,12.2l-10,5.5v11l10,5.5l10-5.5v-11
					L1241.5,12.2z"/>
				<path class="st6" d="M1260.5,13.3l9,4.9V28l-9,4.9l-9-4.9v-9.8L1260.5,13.3 M1260.5,12.2l-10,5.5v11l10,5.5l10-5.5v-11
					L1260.5,12.2z"/>
				<path class="st6" d="M1279.5,13.3l9,4.9V28l-9,4.9l-9-4.9v-9.8L1279.5,13.3 M1279.5,12.2l-10,5.5v11l10,5.5l10-5.5v-11
					L1279.5,12.2z"/>
				<path class="st6" d="M1298.5,13.3l9,4.9V28l-9,4.9l-9-4.9v-9.8L1298.5,13.3 M1298.5,12.2l-10,5.5v11l10,5.5l10-5.5v-11
					L1298.5,12.2z"/>
			</g>
		</g>
		<g>
			<defs>
				<rect id="SVGID_9_" x="927.5" y="17.7" width="304.5" height="114.9"/>
			</defs>
			<clipPath id="SVGID_10_">
				<use xlink:href="#SVGID_9_"  style="overflow:visible;"/>
			</clipPath>
			<g class="st8">
				<path class="st9" d="M928,29.5l9,4.9v9.8l-9,4.9l-9-4.9v-9.8L928,29.5 M928,28.4l-10,5.5v11l10,5.5l10-5.5v-11L928,28.4z"/>
				<path class="st9" d="M947,29.5l9,4.9v9.8l-9,4.9l-9-4.9v-9.8L947,29.5 M947,28.4l-10,5.5v11l10,5.5l10-5.5v-11L947,28.4z"/>
				<path class="st9" d="M966,29.5l9,4.9v9.8l-9,4.9l-9-4.9v-9.8L966,29.5 M966,28.4l-10,5.5v11l10,5.5l10-5.5v-11L966,28.4z"/>
				<path class="st9" d="M985,29.5l9,4.9v9.8l-9,4.9l-9-4.9v-9.8L985,29.5 M985,28.4l-10,5.5v11l10,5.5l10-5.5v-11L985,28.4z"/>
				<path class="st9" d="M1004,29.5l9,4.9v9.8l-9,4.9l-9-4.9v-9.8L1004,29.5 M1004,28.4l-10,5.5v11l10,5.5l10-5.5v-11L1004,28.4z"/>
				<path class="st9" d="M1023,29.5l9,4.9v9.8l-9,4.9l-9-4.9v-9.8L1023,29.5 M1023,28.4l-10,5.5v11l10,5.5l10-5.5v-11L1023,28.4z"/>
				<path class="st9" d="M1042,29.5l9,4.9v9.8l-9,4.9l-9-4.9v-9.8L1042,29.5 M1042,28.4l-10,5.5v11l10,5.5l10-5.5v-11L1042,28.4z"/>
				<path class="st9" d="M1061,29.5l9,4.9v9.8l-9,4.9l-9-4.9v-9.8L1061,29.5 M1061,28.4l-10,5.5v11l10,5.5l10-5.5v-11L1061,28.4z"/>
				<path class="st9" d="M1080,29.5l9,4.9v9.8l-9,4.9l-9-4.9v-9.8L1080,29.5 M1080,28.4l-10,5.5v11l10,5.5l10-5.5v-11L1080,28.4z"/>
				<path class="st9" d="M1099,29.5l9,4.9v9.8l-9,4.9l-9-4.9v-9.8L1099,29.5 M1099,28.4l-10,5.5v11l10,5.5l10-5.5v-11L1099,28.4z"/>
				<path class="st9" d="M1118,29.5l9,4.9v9.8l-9,4.9l-9-4.9v-9.8L1118,29.5 M1118,28.4l-10,5.5v11l10,5.5l10-5.5v-11L1118,28.4z"/>
				<path class="st9" d="M1137,29.5l9,4.9v9.8l-9,4.9l-9-4.9v-9.8L1137,29.5 M1137,28.4l-10,5.5v11l10,5.5l10-5.5v-11L1137,28.4z"/>
				<path class="st9" d="M1156,29.5l9,4.9v9.8l-9,4.9l-9-4.9v-9.8L1156,29.5 M1156,28.4l-10,5.5v11l10,5.5l10-5.5v-11L1156,28.4z"/>
				<path class="st9" d="M1175,29.5l9,4.9v9.8l-9,4.9l-9-4.9v-9.8L1175,29.5 M1175,28.4l-10,5.5v11l10,5.5l10-5.5v-11L1175,28.4z"/>
				<path class="st9" d="M1194,29.5l9,4.9v9.8l-9,4.9l-9-4.9v-9.8L1194,29.5 M1194,28.4l-10,5.5v11l10,5.5l10-5.5v-11L1194,28.4z"/>
				<path class="st9" d="M1213,29.5l9,4.9v9.8l-9,4.9l-9-4.9v-9.8L1213,29.5 M1213,28.4l-10,5.5v11l10,5.5l10-5.5v-11L1213,28.4z"/>
				<path class="st9" d="M1232,29.5l9,4.9v9.8l-9,4.9l-9-4.9v-9.8L1232,29.5 M1232,28.4l-10,5.5v11l10,5.5l10-5.5v-11L1232,28.4z"/>
				<path class="st9" d="M1251,29.5l9,4.9v9.8l-9,4.9l-9-4.9v-9.8L1251,29.5 M1251,28.4l-10,5.5v11l10,5.5l10-5.5v-11L1251,28.4z"/>
				<path class="st9" d="M1270,29.5l9,4.9v9.8l-9,4.9l-9-4.9v-9.8L1270,29.5 M1270,28.4l-10,5.5v11l10,5.5l10-5.5v-11L1270,28.4z"/>
				<path class="st9" d="M1289,29.5l9,4.9v9.8l-9,4.9l-9-4.9v-9.8L1289,29.5 M1289,28.4l-10,5.5v11l10,5.5l10-5.5v-11L1289,28.4z"/>
			</g>
		</g>
		<g>
			<defs>
				<rect id="SVGID_11_" x="927.5" y="17.7" width="304.5" height="114.9"/>
			</defs>
			<clipPath id="SVGID_12_">
				<use xlink:href="#SVGID_11_"  style="overflow:visible;"/>
			</clipPath>
			<g class="st10">
				<path class="st9" d="M937.5,45.6l9,4.9v9.8l-9,4.9l-9-4.9v-9.8L937.5,45.6 M937.5,44.4l-10,5.5v11l10,5.5l10-5.5v-11
					C947.5,49.9,937.5,44.4,937.5,44.4z"/>
				<path class="st9" d="M956.5,45.6l9,4.9v9.8l-9,4.9l-9-4.9v-9.8L956.5,45.6 M956.5,44.4l-10,5.5v11l10,5.5l10-5.5v-11
					C966.5,49.9,956.5,44.4,956.5,44.4z"/>
				<path class="st9" d="M975.5,45.6l9,4.9v9.8l-9,4.9l-9-4.9v-9.8L975.5,45.6 M975.5,44.4l-10,5.5v11l10,5.5l10-5.5v-11
					C985.5,49.9,975.5,44.4,975.5,44.4z"/>
				<path class="st9" d="M994.5,45.6l9,4.9v9.8l-9,4.9l-9-4.9v-9.8L994.5,45.6 M994.5,44.4l-10,5.5v11l10,5.5l10-5.5v-11
					C1004.5,49.9,994.5,44.4,994.5,44.4z"/>
				<path class="st9" d="M1013.5,45.6l9,4.9v9.8l-9,4.9l-9-4.9v-9.8L1013.5,45.6 M1013.5,44.4l-10,5.5v11l10,5.5l10-5.5v-11
					C1023.5,49.9,1013.5,44.4,1013.5,44.4z"/>
				<path class="st9" d="M1032.5,45.6l9,4.9v9.8l-9,4.9l-9-4.9v-9.8L1032.5,45.6 M1032.5,44.4l-10,5.5v11l10,5.5l10-5.5v-11
					C1042.5,49.9,1032.5,44.4,1032.5,44.4z"/>
				<path class="st9" d="M1051.5,45.6l9,4.9v9.8l-9,4.9l-9-4.9v-9.8L1051.5,45.6 M1051.5,44.4l-10,5.5v11l10,5.5l10-5.5v-11
					C1061.5,49.9,1051.5,44.4,1051.5,44.4z"/>
				<path class="st9" d="M1070.5,45.6l9,4.9v9.8l-9,4.9l-9-4.9v-9.8L1070.5,45.6 M1070.5,44.4l-10,5.5v11l10,5.5l10-5.5v-11
					C1080.5,49.9,1070.5,44.4,1070.5,44.4z"/>
				<path class="st9" d="M1089.5,45.6l9,4.9v9.8l-9,4.9l-9-4.9v-9.8L1089.5,45.6 M1089.5,44.4l-10,5.5v11l10,5.5l10-5.5v-11
					C1099.5,49.9,1089.5,44.4,1089.5,44.4z"/>
				<path class="st9" d="M1108.5,45.6l9,4.9v9.8l-9,4.9l-9-4.9v-9.8L1108.5,45.6 M1108.5,44.4l-10,5.5v11l10,5.5l10-5.5v-11
					C1118.5,49.9,1108.5,44.4,1108.5,44.4z"/>
				<path class="st9" d="M1127.5,45.6l9,4.9v9.8l-9,4.9l-9-4.9v-9.8L1127.5,45.6 M1127.5,44.4l-10,5.5v11l10,5.5l10-5.5v-11
					C1137.5,49.9,1127.5,44.4,1127.5,44.4z"/>
				<path class="st9" d="M1146.5,45.6l9,4.9v9.8l-9,4.9l-9-4.9v-9.8L1146.5,45.6 M1146.5,44.4l-10,5.5v11l10,5.5l10-5.5v-11
					C1156.5,49.9,1146.5,44.4,1146.5,44.4z"/>
				<path class="st9" d="M1165.5,45.6l9,4.9v9.8l-9,4.9l-9-4.9v-9.8L1165.5,45.6 M1165.5,44.4l-10,5.5v11l10,5.5l10-5.5v-11
					C1175.5,49.9,1165.5,44.4,1165.5,44.4z"/>
				<path class="st9" d="M1184.5,45.6l9,4.9v9.8l-9,4.9l-9-4.9v-9.8L1184.5,45.6 M1184.5,44.4l-10,5.5v11l10,5.5l10-5.5v-11
					C1194.5,49.9,1184.5,44.4,1184.5,44.4z"/>
				<path class="st9" d="M1203.5,45.6l9,4.9v9.8l-9,4.9l-9-4.9v-9.8L1203.5,45.6 M1203.5,44.4l-10,5.5v11l10,5.5l10-5.5v-11
					C1213.5,49.9,1203.5,44.4,1203.5,44.4z"/>
				<path class="st9" d="M1222.5,45.6l9,4.9v9.8l-9,4.9l-9-4.9v-9.8L1222.5,45.6 M1222.5,44.4l-10,5.5v11l10,5.5l10-5.5v-11
					C1232.5,49.9,1222.5,44.4,1222.5,44.4z"/>
				<path class="st9" d="M1241.5,45.6l9,4.9v9.8l-9,4.9l-9-4.9v-9.8L1241.5,45.6 M1241.5,44.4l-10,5.5v11l10,5.5l10-5.5v-11
					C1251.5,49.9,1241.5,44.4,1241.5,44.4z"/>
				<path class="st9" d="M1260.5,45.6l9,4.9v9.8l-9,4.9l-9-4.9v-9.8L1260.5,45.6 M1260.5,44.4l-10,5.5v11l10,5.5l10-5.5v-11
					C1270.5,49.9,1260.5,44.4,1260.5,44.4z"/>
				<path class="st9" d="M1279.5,45.6l9,4.9v9.8l-9,4.9l-9-4.9v-9.8L1279.5,45.6 M1279.5,44.4l-10,5.5v11l10,5.5l10-5.5v-11
					C1289.5,49.9,1279.5,44.4,1279.5,44.4z"/>
				<path class="st9" d="M1298.5,45.6l9,4.9v9.8l-9,4.9l-9-4.9v-9.8L1298.5,45.6 M1298.5,44.4l-10,5.5v11l10,5.5l10-5.5v-11
					C1308.5,49.9,1298.5,44.4,1298.5,44.4z"/>
			</g>
		</g>
		<g>
			<defs>
				<rect id="SVGID_13_" x="927.5" y="17.7" width="304.5" height="114.9"/>
			</defs>
			<clipPath id="SVGID_14_">
				<use xlink:href="#SVGID_13_"  style="overflow:visible;"/>
			</clipPath>
			<g class="st11">
				<path class="st9" d="M928,61.8l9,4.9v9.8l-9,4.9l-9-4.9v-9.8L928,61.8 M928,60.6l-10,5.5v11l10,5.5l10-5.5v-11
					C938,66.1,928,60.6,928,60.6z"/>
				<path class="st9" d="M947,61.8l9,4.9v9.8l-9,4.9l-9-4.9v-9.8L947,61.8 M947,60.6l-10,5.5v11l10,5.5l10-5.5v-11
					C957,66.1,947,60.6,947,60.6z"/>
				<path class="st9" d="M966,61.8l9,4.9v9.8l-9,4.9l-9-4.9v-9.8L966,61.8 M966,60.6l-10,5.5v11l10,5.5l10-5.5v-11
					C976,66.1,966,60.6,966,60.6z"/>
				<path class="st9" d="M985,61.8l9,4.9v9.8l-9,4.9l-9-4.9v-9.8L985,61.8 M985,60.6l-10,5.5v11l10,5.5l10-5.5v-11
					C995,66.1,985,60.6,985,60.6z"/>
				<path class="st9" d="M1004,61.8l9,4.9v9.8l-9,4.9l-9-4.9v-9.8L1004,61.8 M1004,60.6l-10,5.5v11l10,5.5l10-5.5v-11
					C1014,66.1,1004,60.6,1004,60.6z"/>
				<path class="st9" d="M1023,61.8l9,4.9v9.8l-9,4.9l-9-4.9v-9.8L1023,61.8 M1023,60.6l-10,5.5v11l10,5.5l10-5.5v-11
					C1033,66.1,1023,60.6,1023,60.6z"/>
				<path class="st9" d="M1042,61.8l9,4.9v9.8l-9,4.9l-9-4.9v-9.8L1042,61.8 M1042,60.6l-10,5.5v11l10,5.5l10-5.5v-11
					C1052,66.1,1042,60.6,1042,60.6z"/>
				<path class="st9" d="M1061,61.8l9,4.9v9.8l-9,4.9l-9-4.9v-9.8L1061,61.8 M1061,60.6l-10,5.5v11l10,5.5l10-5.5v-11
					C1071,66.1,1061,60.6,1061,60.6z"/>
				<path class="st9" d="M1080,61.8l9,4.9v9.8l-9,4.9l-9-4.9v-9.8L1080,61.8 M1080,60.6l-10,5.5v11l10,5.5l10-5.5v-11
					C1090,66.1,1080,60.6,1080,60.6z"/>
				<path class="st9" d="M1099,61.8l9,4.9v9.8l-9,4.9l-9-4.9v-9.8L1099,61.8 M1099,60.6l-10,5.5v11l10,5.5l10-5.5v-11
					C1109,66.1,1099,60.6,1099,60.6z"/>
				<path class="st9" d="M1118,61.8l9,4.9v9.8l-9,4.9l-9-4.9v-9.8L1118,61.8 M1118,60.6l-10,5.5v11l10,5.5l10-5.5v-11
					C1128,66.1,1118,60.6,1118,60.6z"/>
				<path class="st9" d="M1137,61.8l9,4.9v9.8l-9,4.9l-9-4.9v-9.8L1137,61.8 M1137,60.6l-10,5.5v11l10,5.5l10-5.5v-11
					C1147,66.1,1137,60.6,1137,60.6z"/>
				<path class="st9" d="M1156,61.8l9,4.9v9.8l-9,4.9l-9-4.9v-9.8L1156,61.8 M1156,60.6l-10,5.5v11l10,5.5l10-5.5v-11
					C1166,66.1,1156,60.6,1156,60.6z"/>
				<path class="st9" d="M1175,61.8l9,4.9v9.8l-9,4.9l-9-4.9v-9.8L1175,61.8 M1175,60.6l-10,5.5v11l10,5.5l10-5.5v-11
					C1185,66.1,1175,60.6,1175,60.6z"/>
				<path class="st9" d="M1194,61.8l9,4.9v9.8l-9,4.9l-9-4.9v-9.8L1194,61.8 M1194,60.6l-10,5.5v11l10,5.5l10-5.5v-11
					C1204,66.1,1194,60.6,1194,60.6z"/>
				<path class="st9" d="M1213,61.8l9,4.9v9.8l-9,4.9l-9-4.9v-9.8L1213,61.8 M1213,60.6l-10,5.5v11l10,5.5l10-5.5v-11
					C1223,66.1,1213,60.6,1213,60.6z"/>
				<path class="st9" d="M1232,61.8l9,4.9v9.8l-9,4.9l-9-4.9v-9.8L1232,61.8 M1232,60.6l-10,5.5v11l10,5.5l10-5.5v-11
					C1242,66.1,1232,60.6,1232,60.6z"/>
				<path class="st9" d="M1251,61.8l9,4.9v9.8l-9,4.9l-9-4.9v-9.8L1251,61.8 M1251,60.6l-10,5.5v11l10,5.5l10-5.5v-11
					C1261,66.1,1251,60.6,1251,60.6z"/>
				<path class="st9" d="M1270,61.8l9,4.9v9.8l-9,4.9l-9-4.9v-9.8L1270,61.8 M1270,60.6l-10,5.5v11l10,5.5l10-5.5v-11
					C1280,66.1,1270,60.6,1270,60.6z"/>
				<path class="st9" d="M1289,61.8l9,4.9v9.8l-9,4.9l-9-4.9v-9.8L1289,61.8 M1289,60.6l-10,5.5v11l10,5.5l10-5.5v-11
					C1299,66.1,1289,60.6,1289,60.6z"/>
			</g>
		</g>
		<g>
			<defs>
				<rect id="SVGID_15_" x="927.5" y="17.7" width="304.5" height="114.9"/>
			</defs>
			<clipPath id="SVGID_16_">
				<use xlink:href="#SVGID_15_"  style="overflow:visible;"/>
			</clipPath>
			<g class="st12">
				<path class="st9" d="M937.5,77.8l9,4.9v9.8l-9,4.9l-9-4.9v-9.8L937.5,77.8 M937.5,76.7l-10,5.5v11l10,5.5l10-5.5v-11L937.5,76.7
					z"/>
				<path class="st9" d="M956.5,77.8l9,4.9v9.8l-9,4.9l-9-4.9v-9.8L956.5,77.8 M956.5,76.7l-10,5.5v11l10,5.5l10-5.5v-11L956.5,76.7
					z"/>
				<path class="st9" d="M975.5,77.8l9,4.9v9.8l-9,4.9l-9-4.9v-9.8L975.5,77.8 M975.5,76.7l-10,5.5v11l10,5.5l10-5.5v-11L975.5,76.7
					z"/>
				<path class="st9" d="M994.5,77.8l9,4.9v9.8l-9,4.9l-9-4.9v-9.8L994.5,77.8 M994.5,76.7l-10,5.5v11l10,5.5l10-5.5v-11L994.5,76.7
					z"/>
				<path class="st9" d="M1013.5,77.8l9,4.9v9.8l-9,4.9l-9-4.9v-9.8L1013.5,77.8 M1013.5,76.7l-10,5.5v11l10,5.5l10-5.5v-11
					L1013.5,76.7z"/>
				<path class="st9" d="M1032.5,77.8l9,4.9v9.8l-9,4.9l-9-4.9v-9.8L1032.5,77.8 M1032.5,76.7l-10,5.5v11l10,5.5l10-5.5v-11
					L1032.5,76.7z"/>
				<path class="st9" d="M1051.5,77.8l9,4.9v9.8l-9,4.9l-9-4.9v-9.8L1051.5,77.8 M1051.5,76.7l-10,5.5v11l10,5.5l10-5.5v-11
					L1051.5,76.7z"/>
				<path class="st9" d="M1070.5,77.8l9,4.9v9.8l-9,4.9l-9-4.9v-9.8L1070.5,77.8 M1070.5,76.7l-10,5.5v11l10,5.5l10-5.5v-11
					L1070.5,76.7z"/>
				<path class="st9" d="M1089.5,77.8l9,4.9v9.8l-9,4.9l-9-4.9v-9.8L1089.5,77.8 M1089.5,76.7l-10,5.5v11l10,5.5l10-5.5v-11
					L1089.5,76.7z"/>
				<path class="st9" d="M1108.5,77.8l9,4.9v9.8l-9,4.9l-9-4.9v-9.8L1108.5,77.8 M1108.5,76.7l-10,5.5v11l10,5.5l10-5.5v-11
					L1108.5,76.7z"/>
				<path class="st9" d="M1127.5,77.8l9,4.9v9.8l-9,4.9l-9-4.9v-9.8L1127.5,77.8 M1127.5,76.7l-10,5.5v11l10,5.5l10-5.5v-11
					L1127.5,76.7z"/>
				<path class="st9" d="M1146.5,77.8l9,4.9v9.8l-9,4.9l-9-4.9v-9.8L1146.5,77.8 M1146.5,76.7l-10,5.5v11l10,5.5l10-5.5v-11
					L1146.5,76.7z"/>
				<path class="st9" d="M1165.5,77.8l9,4.9v9.8l-9,4.9l-9-4.9v-9.8L1165.5,77.8 M1165.5,76.7l-10,5.5v11l10,5.5l10-5.5v-11
					L1165.5,76.7z"/>
				<path class="st9" d="M1184.5,77.8l9,4.9v9.8l-9,4.9l-9-4.9v-9.8L1184.5,77.8 M1184.5,76.7l-10,5.5v11l10,5.5l10-5.5v-11
					L1184.5,76.7z"/>
				<path class="st9" d="M1203.5,77.8l9,4.9v9.8l-9,4.9l-9-4.9v-9.8L1203.5,77.8 M1203.5,76.7l-10,5.5v11l10,5.5l10-5.5v-11
					L1203.5,76.7z"/>
				<path class="st9" d="M1222.5,77.8l9,4.9v9.8l-9,4.9l-9-4.9v-9.8L1222.5,77.8 M1222.5,76.7l-10,5.5v11l10,5.5l10-5.5v-11
					L1222.5,76.7z"/>
				<path class="st9" d="M1241.5,77.8l9,4.9v9.8l-9,4.9l-9-4.9v-9.8L1241.5,77.8 M1241.5,76.7l-10,5.5v11l10,5.5l10-5.5v-11
					L1241.5,76.7z"/>
				<path class="st9" d="M1260.5,77.8l9,4.9v9.8l-9,4.9l-9-4.9v-9.8L1260.5,77.8 M1260.5,76.7l-10,5.5v11l10,5.5l10-5.5v-11
					L1260.5,76.7z"/>
				<path class="st9" d="M1279.5,77.8l9,4.9v9.8l-9,4.9l-9-4.9v-9.8L1279.5,77.8 M1279.5,76.7l-10,5.5v11l10,5.5l10-5.5v-11
					L1279.5,76.7z"/>
				<path class="st9" d="M1298.5,77.8l9,4.9v9.8l-9,4.9l-9-4.9v-9.8L1298.5,77.8 M1298.5,76.7l-10,5.5v11l10,5.5l10-5.5v-11
					L1298.5,76.7z"/>
			</g>
		</g>
		<g>
			<defs>
				<rect id="SVGID_17_" x="927.5" y="17.7" width="304.5" height="114.9"/>
			</defs>
			<clipPath id="SVGID_18_">
				<use xlink:href="#SVGID_17_"  style="overflow:visible;"/>
			</clipPath>
			<g class="st13">
				<path class="st9" d="M928,94l9,4.9v9.8l-9,4.9l-9-4.9V99L928,94 M928,92.9l-10,5.5v11l10,5.5l10-5.5v-11L928,92.9z"/>
				<path class="st9" d="M947,94l9,4.9v9.8l-9,4.9l-9-4.9V99L947,94 M947,92.9l-10,5.5v11l10,5.5l10-5.5v-11L947,92.9z"/>
				<path class="st9" d="M966,94l9,4.9v9.8l-9,4.9l-9-4.9V99L966,94 M966,92.9l-10,5.5v11l10,5.5l10-5.5v-11L966,92.9z"/>
				<path class="st9" d="M985,94l9,4.9v9.8l-9,4.9l-9-4.9V99L985,94 M985,92.9l-10,5.5v11l10,5.5l10-5.5v-11L985,92.9z"/>
				<path class="st9" d="M1004,94l9,4.9v9.8l-9,4.9l-9-4.9V99L1004,94 M1004,92.9l-10,5.5v11l10,5.5l10-5.5v-11L1004,92.9z"/>
				<path class="st9" d="M1023,94l9,4.9v9.8l-9,4.9l-9-4.9V99L1023,94 M1023,92.9l-10,5.5v11l10,5.5l10-5.5v-11L1023,92.9z"/>
				<path class="st9" d="M1042,94l9,4.9v9.8l-9,4.9l-9-4.9V99L1042,94 M1042,92.9l-10,5.5v11l10,5.5l10-5.5v-11L1042,92.9z"/>
				<path class="st9" d="M1061,94l9,4.9v9.8l-9,4.9l-9-4.9V99L1061,94 M1061,92.9l-10,5.5v11l10,5.5l10-5.5v-11L1061,92.9z"/>
				<path class="st9" d="M1080,94l9,4.9v9.8l-9,4.9l-9-4.9V99L1080,94 M1080,92.9l-10,5.5v11l10,5.5l10-5.5v-11L1080,92.9z"/>
				<path class="st9" d="M1099,94l9,4.9v9.8l-9,4.9l-9-4.9V99L1099,94 M1099,92.9l-10,5.5v11l10,5.5l10-5.5v-11L1099,92.9z"/>
				<path class="st9" d="M1118,94l9,4.9v9.8l-9,4.9l-9-4.9V99L1118,94 M1118,92.9l-10,5.5v11l10,5.5l10-5.5v-11L1118,92.9z"/>
				<path class="st9" d="M1137,94l9,4.9v9.8l-9,4.9l-9-4.9V99L1137,94 M1137,92.9l-10,5.5v11l10,5.5l10-5.5v-11L1137,92.9z"/>
				<path class="st9" d="M1156,94l9,4.9v9.8l-9,4.9l-9-4.9V99L1156,94 M1156,92.9l-10,5.5v11l10,5.5l10-5.5v-11L1156,92.9z"/>
				<path class="st9" d="M1175,94l9,4.9v9.8l-9,4.9l-9-4.9V99L1175,94 M1175,92.9l-10,5.5v11l10,5.5l10-5.5v-11L1175,92.9z"/>
				<path class="st9" d="M1194,94l9,4.9v9.8l-9,4.9l-9-4.9V99L1194,94 M1194,92.9l-10,5.5v11l10,5.5l10-5.5v-11L1194,92.9z"/>
				<path class="st9" d="M1213,94l9,4.9v9.8l-9,4.9l-9-4.9V99L1213,94 M1213,92.9l-10,5.5v11l10,5.5l10-5.5v-11L1213,92.9z"/>
				<path class="st9" d="M1232,94l9,4.9v9.8l-9,4.9l-9-4.9V99L1232,94 M1232,92.9l-10,5.5v11l10,5.5l10-5.5v-11L1232,92.9z"/>
				<path class="st9" d="M1251,94l9,4.9v9.8l-9,4.9l-9-4.9V99L1251,94 M1251,92.9l-10,5.5v11l10,5.5l10-5.5v-11L1251,92.9z"/>
				<path class="st9" d="M1270,94l9,4.9v9.8l-9,4.9l-9-4.9V99L1270,94 M1270,92.9l-10,5.5v11l10,5.5l10-5.5v-11L1270,92.9z"/>
				<path class="st9" d="M1289,94l9,4.9v9.8l-9,4.9l-9-4.9V99L1289,94 M1289,92.9l-10,5.5v11l10,5.5l10-5.5v-11L1289,92.9z"/>
			</g>
		</g>
		<g>
			<defs>
				<rect id="SVGID_19_" x="927.5" y="17.7" width="304.5" height="114.9"/>
			</defs>
			<clipPath id="SVGID_20_">
				<use xlink:href="#SVGID_19_"  style="overflow:visible;"/>
			</clipPath>
			<g class="st14">
				<path class="st9" d="M937.5,110.1l9,4.9v9.8l-9,4.9l-9-4.9V115L937.5,110.1 M937.5,108.9l-10,5.5v11l10,5.5l10-5.5v-11
					C947.5,114.4,937.5,108.9,937.5,108.9z"/>
				<path class="st9" d="M956.5,110.1l9,4.9v9.8l-9,4.9l-9-4.9V115L956.5,110.1 M956.5,108.9l-10,5.5v11l10,5.5l10-5.5v-11
					C966.5,114.4,956.5,108.9,956.5,108.9z"/>
				<path class="st9" d="M975.5,110.1l9,4.9v9.8l-9,4.9l-9-4.9V115L975.5,110.1 M975.5,108.9l-10,5.5v11l10,5.5l10-5.5v-11
					C985.5,114.4,975.5,108.9,975.5,108.9z"/>
				<path class="st9" d="M994.5,110.1l9,4.9v9.8l-9,4.9l-9-4.9V115L994.5,110.1 M994.5,108.9l-10,5.5v11l10,5.5l10-5.5v-11
					C1004.5,114.4,994.5,108.9,994.5,108.9z"/>
				<path class="st9" d="M1013.5,110.1l9,4.9v9.8l-9,4.9l-9-4.9V115L1013.5,110.1 M1013.5,108.9l-10,5.5v11l10,5.5l10-5.5v-11
					C1023.5,114.4,1013.5,108.9,1013.5,108.9z"/>
				<path class="st9" d="M1032.5,110.1l9,4.9v9.8l-9,4.9l-9-4.9V115L1032.5,110.1 M1032.5,108.9l-10,5.5v11l10,5.5l10-5.5v-11
					C1042.5,114.4,1032.5,108.9,1032.5,108.9z"/>
				<path class="st9" d="M1051.5,110.1l9,4.9v9.8l-9,4.9l-9-4.9V115L1051.5,110.1 M1051.5,108.9l-10,5.5v11l10,5.5l10-5.5v-11
					C1061.5,114.4,1051.5,108.9,1051.5,108.9z"/>
				<path class="st9" d="M1070.5,110.1l9,4.9v9.8l-9,4.9l-9-4.9V115L1070.5,110.1 M1070.5,108.9l-10,5.5v11l10,5.5l10-5.5v-11
					C1080.5,114.4,1070.5,108.9,1070.5,108.9z"/>
				<path class="st9" d="M1089.5,110.1l9,4.9v9.8l-9,4.9l-9-4.9V115L1089.5,110.1 M1089.5,108.9l-10,5.5v11l10,5.5l10-5.5v-11
					C1099.5,114.4,1089.5,108.9,1089.5,108.9z"/>
				<path class="st9" d="M1108.5,110.1l9,4.9v9.8l-9,4.9l-9-4.9V115L1108.5,110.1 M1108.5,108.9l-10,5.5v11l10,5.5l10-5.5v-11
					C1118.5,114.4,1108.5,108.9,1108.5,108.9z"/>
				<path class="st9" d="M1127.5,110.1l9,4.9v9.8l-9,4.9l-9-4.9V115L1127.5,110.1 M1127.5,108.9l-10,5.5v11l10,5.5l10-5.5v-11
					C1137.5,114.4,1127.5,108.9,1127.5,108.9z"/>
				<path class="st9" d="M1146.5,110.1l9,4.9v9.8l-9,4.9l-9-4.9V115L1146.5,110.1 M1146.5,108.9l-10,5.5v11l10,5.5l10-5.5v-11
					C1156.5,114.4,1146.5,108.9,1146.5,108.9z"/>
				<path class="st9" d="M1165.5,110.1l9,4.9v9.8l-9,4.9l-9-4.9V115L1165.5,110.1 M1165.5,108.9l-10,5.5v11l10,5.5l10-5.5v-11
					C1175.5,114.4,1165.5,108.9,1165.5,108.9z"/>
				<path class="st9" d="M1184.5,110.1l9,4.9v9.8l-9,4.9l-9-4.9V115L1184.5,110.1 M1184.5,108.9l-10,5.5v11l10,5.5l10-5.5v-11
					C1194.5,114.4,1184.5,108.9,1184.5,108.9z"/>
				<path class="st9" d="M1203.5,110.1l9,4.9v9.8l-9,4.9l-9-4.9V115L1203.5,110.1 M1203.5,108.9l-10,5.5v11l10,5.5l10-5.5v-11
					C1213.5,114.4,1203.5,108.9,1203.5,108.9z"/>
				<path class="st9" d="M1222.5,110.1l9,4.9v9.8l-9,4.9l-9-4.9V115L1222.5,110.1 M1222.5,108.9l-10,5.5v11l10,5.5l10-5.5v-11
					C1232.5,114.4,1222.5,108.9,1222.5,108.9z"/>
				<path class="st9" d="M1241.5,110.1l9,4.9v9.8l-9,4.9l-9-4.9V115L1241.5,110.1 M1241.5,108.9l-10,5.5v11l10,5.5l10-5.5v-11
					C1251.5,114.4,1241.5,108.9,1241.5,108.9z"/>
				<path class="st9" d="M1260.5,110.1l9,4.9v9.8l-9,4.9l-9-4.9V115L1260.5,110.1 M1260.5,108.9l-10,5.5v11l10,5.5l10-5.5v-11
					C1270.5,114.4,1260.5,108.9,1260.5,108.9z"/>
				<path class="st9" d="M1279.5,110.1l9,4.9v9.8l-9,4.9l-9-4.9V115L1279.5,110.1 M1279.5,108.9l-10,5.5v11l10,5.5l10-5.5v-11
					C1289.5,114.4,1279.5,108.9,1279.5,108.9z"/>
				<path class="st9" d="M1298.5,110.1l9,4.9v9.8l-9,4.9l-9-4.9V115L1298.5,110.1 M1298.5,108.9l-10,5.5v11l10,5.5l10-5.5v-11
					C1308.5,114.4,1298.5,108.9,1298.5,108.9z"/>
			</g>
		</g>
	</g>
	<polyline class="st15" points="925,131.3 925,14.3 1235,14.3 1235,131.3 	"/>
	<path class="st9" d="M-361.5,774.7c-1.6,0-3.2-0.3-4.7-1c-1.3-1-2.2-2.4-2.5-4l-2.4-11.2c-3,2.7-6.1,5.3-9.3,7.6
		c-3,2.2-6.1,4.1-9.4,5.7c-3.4,1.6-6.9,2.8-10.5,3.6c-4.1,0.8-8.3,1.2-12.5,1.1c-4.4,0.1-8.8-0.6-13-1.9c-3.9-1.2-7.6-3.2-10.7-5.8
		c-3.1-2.7-5.6-6-7.2-9.9c-1.8-4.4-2.7-9.1-2.6-13.9c0.3-4.7,1.9-9.3,4.6-13.2c3.1-4.9,7.5-8.9,12.6-11.7c7.2-3.8,14.8-6.6,22.8-8.3
		c11.2-2.6,22.5-4,34-4.3v-9.3c0.5-7.5-1.6-15-6-21.1c-4.5-4.9-11-7.5-17.6-7.1c-4.4-0.1-8.7,0.6-12.9,1.9c-3.2,1.1-6.3,2.5-9.2,4.3
		l-6.7,4.4c-1.6,1.2-3.5,1.9-5.4,1.9c-1.3,0-2.5-0.4-3.6-1.1c-1-0.7-1.9-1.7-2.6-2.8l-3.7-6.8c6.1-6,13.4-10.7,21.4-13.9
		c8-3.3,16.6-5,25.3-4.9c6.1-0.1,12.2,1,17.9,3.3c5,2.1,9.4,5.3,13,9.3c3.7,4,6.4,8.7,8,13.9c1.8,6,2.7,12.2,2.6,18.5v76.5
		L-361.5,774.7z M-406.6,761.8c3.5,0.1,6.9-0.3,10.3-1.1c3-0.7,5.9-1.8,8.6-3.2c2.8-1.4,5.4-3.1,7.8-5c2.6-2.1,5.1-4.4,7.5-6.8
		v-24.8c-8.3,0.2-16.5,1-24.7,2.4c-5.7,0.9-11.2,2.5-16.5,4.7c-3.7,1.5-6.9,3.9-9.4,6.9c-1.9,2.6-2.8,5.8-2.8,9
		c-0.1,2.8,0.4,5.6,1.5,8.2c0.9,2.2,2.3,4.1,4.2,5.6c1.8,1.5,4,2.6,6.2,3.2C-411.6,761.5-409.1,761.8-406.6,761.8z"/>
</g>
<polygon class="st2" points="-762.6,676.9 -721.9,676.9 -577.3,496.8 -682.4,730.1 -725.8,727.4 -854.1,853.5 "/>
</svg>
