<svg id="Layer_1" data-name="Layer 1" xmlns="http://www.w3.org/2000/svg" xmlns:xlink="http://www.w3.org/1999/xlink" viewBox="0 0 2160 1380"><defs><style>.cls-1,.cls-10{fill:none;}.cls-2{isolation:isolate;}.cls-3{clip-path:url(#clip-path);}.cls-4{clip-path:url(#clip-path-2);}.cls-5{fill:#fff;}.cls-6{opacity:0.1;}.cls-7{fill-rule:evenodd;}.cls-8{clip-path:url(#clip-path-3);}.cls-9{fill:#cecece;}.cls-10{stroke:#fff;stroke-miterlimit:10;stroke-width:7.89px;}</style><clipPath id="clip-path"><polygon class="cls-1" points="37.6 1380.2 402.9 130.1 1755.4 130.1 2120.6 1380.2 37.6 1380.2"/></clipPath><clipPath id="clip-path-2"><polyline class="cls-1" points="402.9 130.1 37.6 1380.2 2120.6 1380.2 1755.4 130.1 402.9 130.1"/></clipPath><clipPath id="clip-path-3"><rect class="cls-1" x="927.5" y="17.7" width="304.5" height="114.9"/></clipPath></defs><g id="Pitch_Layers" data-name="Pitch Layers"><g id="Pitch_Markings" data-name="Pitch Markings"><g class="cls-2"><g class="cls-3"><g class="cls-4"><path class="cls-5" d="M1755.4,130.1H402.9L37.6,1380.2h7.9l59.3-204.7H840.2a178.75,178.75,0,0,0,8.9,65.7,195,195,0,0,0,31.9,59.1,224.38,224.38,0,0,0,51.9,47.9,254.37,254.37,0,0,0,68.2,32H1038a252.34,252.34,0,0,1-78.7-26,227.37,227.37,0,0,1-61.2-46.9,192.06,192.06,0,0,1-38.3-61.6,173,173,0,0,1-11.2-70.2h204.8a20.86,20.86,0,0,0,3,7.6,24,24,0,0,0,5.8,6.1,29.58,29.58,0,0,0,7.9,4.1,30.2,30.2,0,0,0,18.8,0,27,27,0,0,0,7.9-4.1,24,24,0,0,0,5.8-6.1,20.86,20.86,0,0,0,3-7.6h204.8a173,173,0,0,1-11.2,70.2,192.06,192.06,0,0,1-38.3,61.6,224.88,224.88,0,0,1-61.1,46.9,254.35,254.35,0,0,1-78.6,26h36.9a255.82,255.82,0,0,0,68.2-32,222.38,222.38,0,0,0,51.9-47.9,195,195,0,0,0,31.9-59.1,180.88,180.88,0,0,0,8.9-65.7h735.4l59.4,204.7h6.8Zm-3.7,2.6,8.5,29.5a92.6,92.6,0,0,1-19.3-3,85.57,85.57,0,0,1-17-6.4,57,57,0,0,1-13.2-9.1,31.88,31.88,0,0,1-7.9-10.9h48.9Zm-840.1,0h335.7l3.6,49.3H908.1Zm-5.8,0-4,52.9h355.4l-4-52.9h130l12.9,98.2H762.9l12.9-98.2Zm289.9,102.1a74.47,74.47,0,0,1-18.1,20.2,118.4,118.4,0,0,1-26.8,15.8,168.12,168.12,0,0,1-33.5,10.3,194.94,194.94,0,0,1-75.6,0,168.12,168.12,0,0,1-33.5-10.3A116.24,116.24,0,0,1,981.4,255a77.52,77.52,0,0,1-18.1-20.2ZM407.3,132.7h49a31,31,0,0,1-7.9,10.9,57,57,0,0,1-13.2,9.1,85.57,85.57,0,0,1-17,6.4,94.62,94.62,0,0,1-19.4,3Zm698.3,1035.6a20.59,20.59,0,0,0-3.1-7.5,23.58,23.58,0,0,0-5.8-6,28.72,28.72,0,0,0-7.8-4,31,31,0,0,0-9.2-1.4,30.55,30.55,0,0,0-9.2,1.4,26.17,26.17,0,0,0-7.8,4,23.58,23.58,0,0,0-5.8,6,20.59,20.59,0,0,0-3.1,7.5H849.3a179.14,179.14,0,0,1,23.9-74.3c12.9-22.2,30.5-41.8,51.3-58.2a240.7,240.7,0,0,1,70.9-38.1,260.76,260.76,0,0,1,84.2-13.7,263.5,263.5,0,0,1,84.2,13.7,240.7,240.7,0,0,1,70.9,38.1A204.44,204.44,0,0,1,1286,1094a178.8,178.8,0,0,1,24,74.3Zm212.9,0a183.23,183.23,0,0,0-25-76.9,214.89,214.89,0,0,0-53.3-60.2,249.39,249.39,0,0,0-73.5-39.3,272.78,272.78,0,0,0-87.1-14.2,270,270,0,0,0-87.1,14.2,250.64,250.64,0,0,0-73.5,39.3,216.47,216.47,0,0,0-53.3,60.2,186.58,186.58,0,0,0-25,76.9H107L397.7,165.7a103.3,103.3,0,0,0,21.8-3.3,99.18,99.18,0,0,0,19.2-7.2A66.54,66.54,0,0,0,453.5,145a36,36,0,0,0,8.8-12.3H770L756.4,234.6H956.8a77.59,77.59,0,0,0,18.6,21.9,119,119,0,0,0,28.3,17.1,172.43,172.43,0,0,0,35.6,11.2,206,206,0,0,0,80.8,0,172.43,172.43,0,0,0,35.6-11.2,125.93,125.93,0,0,0,28.3-17.1,77.59,77.59,0,0,0,18.6-21.9H1403l-13.6-101.9H1697a35.26,35.26,0,0,0,8.7,12.3,65.81,65.81,0,0,0,14.7,10.2,90.06,90.06,0,0,0,19.1,7.2,103.35,103.35,0,0,0,21.7,3.3l291,1002.6Z"/></g></g></g></g></g><g id="Goal"><g id="Goal_shad" data-name="Goal shad" class="cls-6"><polygon class="cls-7" points="892 73 922 130 1237 130 1267 73 892 73"/></g><g id="NET"><g class="cls-8"><path class="cls-9" d="M928-2.7l9,4.9V12l-9,4.9L919,12V2.2l9-4.9m0-1.2L918,1.6v11l10,5.5,10-5.5V1.6L928-3.9Z"/><path class="cls-9" d="M947-2.7l9,4.9V12l-9,4.9L938,12V2.2l9-4.9m0-1.2L937,1.6v11l10,5.5,10-5.5V1.6L947-3.9Z"/><path class="cls-9" d="M966-2.7l9,4.9V12l-9,4.9L957,12V2.2l9-4.9m0-1.2L956,1.6v11l10,5.5,10-5.5V1.6L966-3.9Z"/><path class="cls-9" d="M985-2.7l9,4.9V12l-9,4.9L976,12V2.2l9-4.9m0-1.2L975,1.6v11l10,5.5,10-5.5V1.6L985-3.9Z"/><path class="cls-9" d="M1004-2.7l9,4.9V12l-9,4.9L995,12V2.2l9-4.9m0-1.2L994,1.6v11l10,5.5,10-5.5V1.6l-10-5.5Z"/><path class="cls-9" d="M1023-2.7l9,4.9V12l-9,4.9-9-4.9V2.2l9-4.9m0-1.2-10,5.5v11l10,5.5,10-5.5V1.6l-10-5.5Z"/><path class="cls-9" d="M1042-2.7l9,4.9V12l-9,4.9-9-4.9V2.2l9-4.9m0-1.2-10,5.5v11l10,5.5,10-5.5V1.6l-10-5.5Z"/><path class="cls-9" d="M1061-2.7l9,4.9V12l-9,4.9-9-4.9V2.2l9-4.9m0-1.2-10,5.5v11l10,5.5,10-5.5V1.6l-10-5.5Z"/><path class="cls-9" d="M1080-2.7l9,4.9V12l-9,4.9-9-4.9V2.2l9-4.9m0-1.2-10,5.5v11l10,5.5,10-5.5V1.6l-10-5.5Z"/><path class="cls-9" d="M1099-2.7l9,4.9V12l-9,4.9-9-4.9V2.2l9-4.9m0-1.2-10,5.5v11l10,5.5,10-5.5V1.6l-10-5.5Z"/><path class="cls-9" d="M1118-2.7l9,4.9V12l-9,4.9-9-4.9V2.2l9-4.9m0-1.2-10,5.5v11l10,5.5,10-5.5V1.6l-10-5.5Z"/><path class="cls-9" d="M1137-2.7l9,4.9V12l-9,4.9-9-4.9V2.2l9-4.9m0-1.2-10,5.5v11l10,5.5,10-5.5V1.6l-10-5.5Z"/><path class="cls-9" d="M1156-2.7l9,4.9V12l-9,4.9-9-4.9V2.2l9-4.9m0-1.2-10,5.5v11l10,5.5,10-5.5V1.6l-10-5.5Z"/><path class="cls-9" d="M1175-2.7l9,4.9V12l-9,4.9-9-4.9V2.2l9-4.9m0-1.2-10,5.5v11l10,5.5,10-5.5V1.6l-10-5.5Z"/><path class="cls-9" d="M1194-2.7l9,4.9V12l-9,4.9-9-4.9V2.2l9-4.9m0-1.2-10,5.5v11l10,5.5,10-5.5V1.6l-10-5.5Z"/><path class="cls-9" d="M1213-2.7l9,4.9V12l-9,4.9-9-4.9V2.2l9-4.9m0-1.2-10,5.5v11l10,5.5,10-5.5V1.6l-10-5.5Z"/><path class="cls-9" d="M1232-2.7l9,4.9V12l-9,4.9-9-4.9V2.2l9-4.9m0-1.2-10,5.5v11l10,5.5,10-5.5V1.6l-10-5.5Z"/><path class="cls-9" d="M1251-2.7l9,4.9V12l-9,4.9-9-4.9V2.2l9-4.9m0-1.2-10,5.5v11l10,5.5,10-5.5V1.6l-10-5.5Z"/><path class="cls-9" d="M1270-2.7l9,4.9V12l-9,4.9-9-4.9V2.2l9-4.9m0-1.2-10,5.5v11l10,5.5,10-5.5V1.6l-10-5.5Z"/><path class="cls-9" d="M1289-2.7l9,4.9V12l-9,4.9-9-4.9V2.2l9-4.9m0-1.2-10,5.5v11l10,5.5,10-5.5V1.6l-10-5.5Z"/></g><g class="cls-8"><path class="cls-9" d="M937.5,13.3l9,4.9V28l-9,4.9-9-4.9V18.2l9-4.9m0-1.1-10,5.5v11l10,5.5,10-5.5v-11l-10-5.5Z"/><path class="cls-9" d="M956.5,13.3l9,4.9V28l-9,4.9-9-4.9V18.2l9-4.9m0-1.1-10,5.5v11l10,5.5,10-5.5v-11l-10-5.5Z"/><path class="cls-9" d="M975.5,13.3l9,4.9V28l-9,4.9-9-4.9V18.2l9-4.9m0-1.1-10,5.5v11l10,5.5,10-5.5v-11l-10-5.5Z"/><path class="cls-9" d="M994.5,13.3l9,4.9V28l-9,4.9-9-4.9V18.2l9-4.9m0-1.1-10,5.5v11l10,5.5,10-5.5v-11l-10-5.5Z"/><path class="cls-9" d="M1013.5,13.3l9,4.9V28l-9,4.9-9-4.9V18.2l9-4.9m0-1.1-10,5.5v11l10,5.5,10-5.5v-11l-10-5.5Z"/><path class="cls-9" d="M1032.5,13.3l9,4.9V28l-9,4.9-9-4.9V18.2l9-4.9m0-1.1-10,5.5v11l10,5.5,10-5.5v-11l-10-5.5Z"/><path class="cls-9" d="M1051.5,13.3l9,4.9V28l-9,4.9-9-4.9V18.2l9-4.9m0-1.1-10,5.5v11l10,5.5,10-5.5v-11l-10-5.5Z"/><path class="cls-9" d="M1070.5,13.3l9,4.9V28l-9,4.9-9-4.9V18.2l9-4.9m0-1.1-10,5.5v11l10,5.5,10-5.5v-11l-10-5.5Z"/><path class="cls-9" d="M1089.5,13.3l9,4.9V28l-9,4.9-9-4.9V18.2l9-4.9m0-1.1-10,5.5v11l10,5.5,10-5.5v-11l-10-5.5Z"/><path class="cls-9" d="M1108.5,13.3l9,4.9V28l-9,4.9-9-4.9V18.2l9-4.9m0-1.1-10,5.5v11l10,5.5,10-5.5v-11l-10-5.5Z"/><path class="cls-9" d="M1127.5,13.3l9,4.9V28l-9,4.9-9-4.9V18.2l9-4.9m0-1.1-10,5.5v11l10,5.5,10-5.5v-11l-10-5.5Z"/><path class="cls-9" d="M1146.5,13.3l9,4.9V28l-9,4.9-9-4.9V18.2l9-4.9m0-1.1-10,5.5v11l10,5.5,10-5.5v-11l-10-5.5Z"/><path class="cls-9" d="M1165.5,13.3l9,4.9V28l-9,4.9-9-4.9V18.2l9-4.9m0-1.1-10,5.5v11l10,5.5,10-5.5v-11l-10-5.5Z"/><path class="cls-9" d="M1184.5,13.3l9,4.9V28l-9,4.9-9-4.9V18.2l9-4.9m0-1.1-10,5.5v11l10,5.5,10-5.5v-11l-10-5.5Z"/><path class="cls-9" d="M1203.5,13.3l9,4.9V28l-9,4.9-9-4.9V18.2l9-4.9m0-1.1-10,5.5v11l10,5.5,10-5.5v-11l-10-5.5Z"/><path class="cls-9" d="M1222.5,13.3l9,4.9V28l-9,4.9-9-4.9V18.2l9-4.9m0-1.1-10,5.5v11l10,5.5,10-5.5v-11l-10-5.5Z"/><path class="cls-9" d="M1241.5,13.3l9,4.9V28l-9,4.9-9-4.9V18.2l9-4.9m0-1.1-10,5.5v11l10,5.5,10-5.5v-11l-10-5.5Z"/><path class="cls-9" d="M1260.5,13.3l9,4.9V28l-9,4.9-9-4.9V18.2l9-4.9m0-1.1-10,5.5v11l10,5.5,10-5.5v-11l-10-5.5Z"/><path class="cls-9" d="M1279.5,13.3l9,4.9V28l-9,4.9-9-4.9V18.2l9-4.9m0-1.1-10,5.5v11l10,5.5,10-5.5v-11l-10-5.5Z"/><path class="cls-9" d="M1298.5,13.3l9,4.9V28l-9,4.9-9-4.9V18.2l9-4.9m0-1.1-10,5.5v11l10,5.5,10-5.5v-11l-10-5.5Z"/></g><g class="cls-8"><path class="cls-9" d="M928,29.5l9,4.9v9.8l-9,4.9-9-4.9V34.4l9-4.9m0-1.1-10,5.5v11l10,5.5,10-5.5v-11l-10-5.5Z"/><path class="cls-9" d="M947,29.5l9,4.9v9.8l-9,4.9-9-4.9V34.4l9-4.9m0-1.1-10,5.5v11l10,5.5,10-5.5v-11l-10-5.5Z"/><path class="cls-9" d="M966,29.5l9,4.9v9.8l-9,4.9-9-4.9V34.4l9-4.9m0-1.1-10,5.5v11l10,5.5,10-5.5v-11l-10-5.5Z"/><path class="cls-9" d="M985,29.5l9,4.9v9.8l-9,4.9-9-4.9V34.4l9-4.9m0-1.1-10,5.5v11l10,5.5,10-5.5v-11l-10-5.5Z"/><path class="cls-9" d="M1004,29.5l9,4.9v9.8l-9,4.9-9-4.9V34.4l9-4.9m0-1.1-10,5.5v11l10,5.5,10-5.5v-11l-10-5.5Z"/><path class="cls-9" d="M1023,29.5l9,4.9v9.8l-9,4.9-9-4.9V34.4l9-4.9m0-1.1-10,5.5v11l10,5.5,10-5.5v-11l-10-5.5Z"/><path class="cls-9" d="M1042,29.5l9,4.9v9.8l-9,4.9-9-4.9V34.4l9-4.9m0-1.1-10,5.5v11l10,5.5,10-5.5v-11l-10-5.5Z"/><path class="cls-9" d="M1061,29.5l9,4.9v9.8l-9,4.9-9-4.9V34.4l9-4.9m0-1.1-10,5.5v11l10,5.5,10-5.5v-11l-10-5.5Z"/><path class="cls-9" d="M1080,29.5l9,4.9v9.8l-9,4.9-9-4.9V34.4l9-4.9m0-1.1-10,5.5v11l10,5.5,10-5.5v-11l-10-5.5Z"/><path class="cls-9" d="M1099,29.5l9,4.9v9.8l-9,4.9-9-4.9V34.4l9-4.9m0-1.1-10,5.5v11l10,5.5,10-5.5v-11l-10-5.5Z"/><path class="cls-9" d="M1118,29.5l9,4.9v9.8l-9,4.9-9-4.9V34.4l9-4.9m0-1.1-10,5.5v11l10,5.5,10-5.5v-11l-10-5.5Z"/><path class="cls-9" d="M1137,29.5l9,4.9v9.8l-9,4.9-9-4.9V34.4l9-4.9m0-1.1-10,5.5v11l10,5.5,10-5.5v-11l-10-5.5Z"/><path class="cls-9" d="M1156,29.5l9,4.9v9.8l-9,4.9-9-4.9V34.4l9-4.9m0-1.1-10,5.5v11l10,5.5,10-5.5v-11l-10-5.5Z"/><path class="cls-9" d="M1175,29.5l9,4.9v9.8l-9,4.9-9-4.9V34.4l9-4.9m0-1.1-10,5.5v11l10,5.5,10-5.5v-11l-10-5.5Z"/><path class="cls-9" d="M1194,29.5l9,4.9v9.8l-9,4.9-9-4.9V34.4l9-4.9m0-1.1-10,5.5v11l10,5.5,10-5.5v-11l-10-5.5Z"/><path class="cls-9" d="M1213,29.5l9,4.9v9.8l-9,4.9-9-4.9V34.4l9-4.9m0-1.1-10,5.5v11l10,5.5,10-5.5v-11l-10-5.5Z"/><path class="cls-9" d="M1232,29.5l9,4.9v9.8l-9,4.9-9-4.9V34.4l9-4.9m0-1.1-10,5.5v11l10,5.5,10-5.5v-11l-10-5.5Z"/><path class="cls-9" d="M1251,29.5l9,4.9v9.8l-9,4.9-9-4.9V34.4l9-4.9m0-1.1-10,5.5v11l10,5.5,10-5.5v-11l-10-5.5Z"/><path class="cls-9" d="M1270,29.5l9,4.9v9.8l-9,4.9-9-4.9V34.4l9-4.9m0-1.1-10,5.5v11l10,5.5,10-5.5v-11l-10-5.5Z"/><path class="cls-9" d="M1289,29.5l9,4.9v9.8l-9,4.9-9-4.9V34.4l9-4.9m0-1.1-10,5.5v11l10,5.5,10-5.5v-11l-10-5.5Z"/></g><g class="cls-8"><path class="cls-9" d="M937.5,45.6l9,4.9v9.8l-9,4.9-9-4.9V50.5l9-4.9m0-1.2-10,5.5v11l10,5.5,10-5.5v-11l-10-5.5Z"/><path class="cls-9" d="M956.5,45.6l9,4.9v9.8l-9,4.9-9-4.9V50.5l9-4.9m0-1.2-10,5.5v11l10,5.5,10-5.5v-11l-10-5.5Z"/><path class="cls-9" d="M975.5,45.6l9,4.9v9.8l-9,4.9-9-4.9V50.5l9-4.9m0-1.2-10,5.5v11l10,5.5,10-5.5v-11l-10-5.5Z"/><path class="cls-9" d="M994.5,45.6l9,4.9v9.8l-9,4.9-9-4.9V50.5l9-4.9m0-1.2-10,5.5v11l10,5.5,10-5.5v-11l-10-5.5Z"/><path class="cls-9" d="M1013.5,45.6l9,4.9v9.8l-9,4.9-9-4.9V50.5l9-4.9m0-1.2-10,5.5v11l10,5.5,10-5.5v-11l-10-5.5Z"/><path class="cls-9" d="M1032.5,45.6l9,4.9v9.8l-9,4.9-9-4.9V50.5l9-4.9m0-1.2-10,5.5v11l10,5.5,10-5.5v-11l-10-5.5Z"/><path class="cls-9" d="M1051.5,45.6l9,4.9v9.8l-9,4.9-9-4.9V50.5l9-4.9m0-1.2-10,5.5v11l10,5.5,10-5.5v-11l-10-5.5Z"/><path class="cls-9" d="M1070.5,45.6l9,4.9v9.8l-9,4.9-9-4.9V50.5l9-4.9m0-1.2-10,5.5v11l10,5.5,10-5.5v-11l-10-5.5Z"/><path class="cls-9" d="M1089.5,45.6l9,4.9v9.8l-9,4.9-9-4.9V50.5l9-4.9m0-1.2-10,5.5v11l10,5.5,10-5.5v-11l-10-5.5Z"/><path class="cls-9" d="M1108.5,45.6l9,4.9v9.8l-9,4.9-9-4.9V50.5l9-4.9m0-1.2-10,5.5v11l10,5.5,10-5.5v-11l-10-5.5Z"/><path class="cls-9" d="M1127.5,45.6l9,4.9v9.8l-9,4.9-9-4.9V50.5l9-4.9m0-1.2-10,5.5v11l10,5.5,10-5.5v-11l-10-5.5Z"/><path class="cls-9" d="M1146.5,45.6l9,4.9v9.8l-9,4.9-9-4.9V50.5l9-4.9m0-1.2-10,5.5v11l10,5.5,10-5.5v-11l-10-5.5Z"/><path class="cls-9" d="M1165.5,45.6l9,4.9v9.8l-9,4.9-9-4.9V50.5l9-4.9m0-1.2-10,5.5v11l10,5.5,10-5.5v-11l-10-5.5Z"/><path class="cls-9" d="M1184.5,45.6l9,4.9v9.8l-9,4.9-9-4.9V50.5l9-4.9m0-1.2-10,5.5v11l10,5.5,10-5.5v-11l-10-5.5Z"/><path class="cls-9" d="M1203.5,45.6l9,4.9v9.8l-9,4.9-9-4.9V50.5l9-4.9m0-1.2-10,5.5v11l10,5.5,10-5.5v-11l-10-5.5Z"/><path class="cls-9" d="M1222.5,45.6l9,4.9v9.8l-9,4.9-9-4.9V50.5l9-4.9m0-1.2-10,5.5v11l10,5.5,10-5.5v-11l-10-5.5Z"/><path class="cls-9" d="M1241.5,45.6l9,4.9v9.8l-9,4.9-9-4.9V50.5l9-4.9m0-1.2-10,5.5v11l10,5.5,10-5.5v-11l-10-5.5Z"/><path class="cls-9" d="M1260.5,45.6l9,4.9v9.8l-9,4.9-9-4.9V50.5l9-4.9m0-1.2-10,5.5v11l10,5.5,10-5.5v-11l-10-5.5Z"/><path class="cls-9" d="M1279.5,45.6l9,4.9v9.8l-9,4.9-9-4.9V50.5l9-4.9m0-1.2-10,5.5v11l10,5.5,10-5.5v-11l-10-5.5Z"/><path class="cls-9" d="M1298.5,45.6l9,4.9v9.8l-9,4.9-9-4.9V50.5l9-4.9m0-1.2-10,5.5v11l10,5.5,10-5.5v-11l-10-5.5Z"/></g><g class="cls-8"><path class="cls-9" d="M928,61.8l9,4.9v9.8l-9,4.9-9-4.9V66.7l9-4.9m0-1.2-10,5.5v11l10,5.5,10-5.5v-11l-10-5.5Z"/><path class="cls-9" d="M947,61.8l9,4.9v9.8l-9,4.9-9-4.9V66.7l9-4.9m0-1.2-10,5.5v11l10,5.5,10-5.5v-11l-10-5.5Z"/><path class="cls-9" d="M966,61.8l9,4.9v9.8l-9,4.9-9-4.9V66.7l9-4.9m0-1.2-10,5.5v11l10,5.5,10-5.5v-11l-10-5.5Z"/><path class="cls-9" d="M985,61.8l9,4.9v9.8l-9,4.9-9-4.9V66.7l9-4.9m0-1.2-10,5.5v11l10,5.5,10-5.5v-11l-10-5.5Z"/><path class="cls-9" d="M1004,61.8l9,4.9v9.8l-9,4.9-9-4.9V66.7l9-4.9m0-1.2-10,5.5v11l10,5.5,10-5.5v-11l-10-5.5Z"/><path class="cls-9" d="M1023,61.8l9,4.9v9.8l-9,4.9-9-4.9V66.7l9-4.9m0-1.2-10,5.5v11l10,5.5,10-5.5v-11l-10-5.5Z"/><path class="cls-9" d="M1042,61.8l9,4.9v9.8l-9,4.9-9-4.9V66.7l9-4.9m0-1.2-10,5.5v11l10,5.5,10-5.5v-11l-10-5.5Z"/><path class="cls-9" d="M1061,61.8l9,4.9v9.8l-9,4.9-9-4.9V66.7l9-4.9m0-1.2-10,5.5v11l10,5.5,10-5.5v-11l-10-5.5Z"/><path class="cls-9" d="M1080,61.8l9,4.9v9.8l-9,4.9-9-4.9V66.7l9-4.9m0-1.2-10,5.5v11l10,5.5,10-5.5v-11l-10-5.5Z"/><path class="cls-9" d="M1099,61.8l9,4.9v9.8l-9,4.9-9-4.9V66.7l9-4.9m0-1.2-10,5.5v11l10,5.5,10-5.5v-11l-10-5.5Z"/><path class="cls-9" d="M1118,61.8l9,4.9v9.8l-9,4.9-9-4.9V66.7l9-4.9m0-1.2-10,5.5v11l10,5.5,10-5.5v-11l-10-5.5Z"/><path class="cls-9" d="M1137,61.8l9,4.9v9.8l-9,4.9-9-4.9V66.7l9-4.9m0-1.2-10,5.5v11l10,5.5,10-5.5v-11l-10-5.5Z"/><path class="cls-9" d="M1156,61.8l9,4.9v9.8l-9,4.9-9-4.9V66.7l9-4.9m0-1.2-10,5.5v11l10,5.5,10-5.5v-11l-10-5.5Z"/><path class="cls-9" d="M1175,61.8l9,4.9v9.8l-9,4.9-9-4.9V66.7l9-4.9m0-1.2-10,5.5v11l10,5.5,10-5.5v-11l-10-5.5Z"/><path class="cls-9" d="M1194,61.8l9,4.9v9.8l-9,4.9-9-4.9V66.7l9-4.9m0-1.2-10,5.5v11l10,5.5,10-5.5v-11l-10-5.5Z"/><path class="cls-9" d="M1213,61.8l9,4.9v9.8l-9,4.9-9-4.9V66.7l9-4.9m0-1.2-10,5.5v11l10,5.5,10-5.5v-11l-10-5.5Z"/><path class="cls-9" d="M1232,61.8l9,4.9v9.8l-9,4.9-9-4.9V66.7l9-4.9m0-1.2-10,5.5v11l10,5.5,10-5.5v-11l-10-5.5Z"/><path class="cls-9" d="M1251,61.8l9,4.9v9.8l-9,4.9-9-4.9V66.7l9-4.9m0-1.2-10,5.5v11l10,5.5,10-5.5v-11l-10-5.5Z"/><path class="cls-9" d="M1270,61.8l9,4.9v9.8l-9,4.9-9-4.9V66.7l9-4.9m0-1.2-10,5.5v11l10,5.5,10-5.5v-11l-10-5.5Z"/><path class="cls-9" d="M1289,61.8l9,4.9v9.8l-9,4.9-9-4.9V66.7l9-4.9m0-1.2-10,5.5v11l10,5.5,10-5.5v-11l-10-5.5Z"/></g><g class="cls-8"><path class="cls-9" d="M937.5,77.8l9,4.9v9.8l-9,4.9-9-4.9V82.7l9-4.9m0-1.1-10,5.5v11l10,5.5,10-5.5v-11l-10-5.5Z"/><path class="cls-9" d="M956.5,77.8l9,4.9v9.8l-9,4.9-9-4.9V82.7l9-4.9m0-1.1-10,5.5v11l10,5.5,10-5.5v-11l-10-5.5Z"/><path class="cls-9" d="M975.5,77.8l9,4.9v9.8l-9,4.9-9-4.9V82.7l9-4.9m0-1.1-10,5.5v11l10,5.5,10-5.5v-11l-10-5.5Z"/><path class="cls-9" d="M994.5,77.8l9,4.9v9.8l-9,4.9-9-4.9V82.7l9-4.9m0-1.1-10,5.5v11l10,5.5,10-5.5v-11l-10-5.5Z"/><path class="cls-9" d="M1013.5,77.8l9,4.9v9.8l-9,4.9-9-4.9V82.7l9-4.9m0-1.1-10,5.5v11l10,5.5,10-5.5v-11l-10-5.5Z"/><path class="cls-9" d="M1032.5,77.8l9,4.9v9.8l-9,4.9-9-4.9V82.7l9-4.9m0-1.1-10,5.5v11l10,5.5,10-5.5v-11l-10-5.5Z"/><path class="cls-9" d="M1051.5,77.8l9,4.9v9.8l-9,4.9-9-4.9V82.7l9-4.9m0-1.1-10,5.5v11l10,5.5,10-5.5v-11l-10-5.5Z"/><path class="cls-9" d="M1070.5,77.8l9,4.9v9.8l-9,4.9-9-4.9V82.7l9-4.9m0-1.1-10,5.5v11l10,5.5,10-5.5v-11l-10-5.5Z"/><path class="cls-9" d="M1089.5,77.8l9,4.9v9.8l-9,4.9-9-4.9V82.7l9-4.9m0-1.1-10,5.5v11l10,5.5,10-5.5v-11l-10-5.5Z"/><path class="cls-9" d="M1108.5,77.8l9,4.9v9.8l-9,4.9-9-4.9V82.7l9-4.9m0-1.1-10,5.5v11l10,5.5,10-5.5v-11l-10-5.5Z"/><path class="cls-9" d="M1127.5,77.8l9,4.9v9.8l-9,4.9-9-4.9V82.7l9-4.9m0-1.1-10,5.5v11l10,5.5,10-5.5v-11l-10-5.5Z"/><path class="cls-9" d="M1146.5,77.8l9,4.9v9.8l-9,4.9-9-4.9V82.7l9-4.9m0-1.1-10,5.5v11l10,5.5,10-5.5v-11l-10-5.5Z"/><path class="cls-9" d="M1165.5,77.8l9,4.9v9.8l-9,4.9-9-4.9V82.7l9-4.9m0-1.1-10,5.5v11l10,5.5,10-5.5v-11l-10-5.5Z"/><path class="cls-9" d="M1184.5,77.8l9,4.9v9.8l-9,4.9-9-4.9V82.7l9-4.9m0-1.1-10,5.5v11l10,5.5,10-5.5v-11l-10-5.5Z"/><path class="cls-9" d="M1203.5,77.8l9,4.9v9.8l-9,4.9-9-4.9V82.7l9-4.9m0-1.1-10,5.5v11l10,5.5,10-5.5v-11l-10-5.5Z"/><path class="cls-9" d="M1222.5,77.8l9,4.9v9.8l-9,4.9-9-4.9V82.7l9-4.9m0-1.1-10,5.5v11l10,5.5,10-5.5v-11l-10-5.5Z"/><path class="cls-9" d="M1241.5,77.8l9,4.9v9.8l-9,4.9-9-4.9V82.7l9-4.9m0-1.1-10,5.5v11l10,5.5,10-5.5v-11l-10-5.5Z"/><path class="cls-9" d="M1260.5,77.8l9,4.9v9.8l-9,4.9-9-4.9V82.7l9-4.9m0-1.1-10,5.5v11l10,5.5,10-5.5v-11l-10-5.5Z"/><path class="cls-9" d="M1279.5,77.8l9,4.9v9.8l-9,4.9-9-4.9V82.7l9-4.9m0-1.1-10,5.5v11l10,5.5,10-5.5v-11l-10-5.5Z"/><path class="cls-9" d="M1298.5,77.8l9,4.9v9.8l-9,4.9-9-4.9V82.7l9-4.9m0-1.1-10,5.5v11l10,5.5,10-5.5v-11l-10-5.5Z"/></g><g class="cls-8"><path class="cls-9" d="M928,94l9,4.9v9.8l-9,4.9-9-4.9V99l9-5m0-1.1-10,5.5v11l10,5.5,10-5.5v-11l-10-5.5Z"/><path class="cls-9" d="M947,94l9,4.9v9.8l-9,4.9-9-4.9V99l9-5m0-1.1-10,5.5v11l10,5.5,10-5.5v-11l-10-5.5Z"/><path class="cls-9" d="M966,94l9,4.9v9.8l-9,4.9-9-4.9V99l9-5m0-1.1-10,5.5v11l10,5.5,10-5.5v-11l-10-5.5Z"/><path class="cls-9" d="M985,94l9,4.9v9.8l-9,4.9-9-4.9V99l9-5m0-1.1-10,5.5v11l10,5.5,10-5.5v-11l-10-5.5Z"/><path class="cls-9" d="M1004,94l9,4.9v9.8l-9,4.9-9-4.9V99l9-5m0-1.1-10,5.5v11l10,5.5,10-5.5v-11l-10-5.5Z"/><path class="cls-9" d="M1023,94l9,4.9v9.8l-9,4.9-9-4.9V99l9-5m0-1.1-10,5.5v11l10,5.5,10-5.5v-11l-10-5.5Z"/><path class="cls-9" d="M1042,94l9,4.9v9.8l-9,4.9-9-4.9V99l9-5m0-1.1-10,5.5v11l10,5.5,10-5.5v-11l-10-5.5Z"/><path class="cls-9" d="M1061,94l9,4.9v9.8l-9,4.9-9-4.9V99l9-5m0-1.1-10,5.5v11l10,5.5,10-5.5v-11l-10-5.5Z"/><path class="cls-9" d="M1080,94l9,4.9v9.8l-9,4.9-9-4.9V99l9-5m0-1.1-10,5.5v11l10,5.5,10-5.5v-11l-10-5.5Z"/><path class="cls-9" d="M1099,94l9,4.9v9.8l-9,4.9-9-4.9V99l9-5m0-1.1-10,5.5v11l10,5.5,10-5.5v-11l-10-5.5Z"/><path class="cls-9" d="M1118,94l9,4.9v9.8l-9,4.9-9-4.9V99l9-5m0-1.1-10,5.5v11l10,5.5,10-5.5v-11l-10-5.5Z"/><path class="cls-9" d="M1137,94l9,4.9v9.8l-9,4.9-9-4.9V99l9-5m0-1.1-10,5.5v11l10,5.5,10-5.5v-11l-10-5.5Z"/><path class="cls-9" d="M1156,94l9,4.9v9.8l-9,4.9-9-4.9V99l9-5m0-1.1-10,5.5v11l10,5.5,10-5.5v-11l-10-5.5Z"/><path class="cls-9" d="M1175,94l9,4.9v9.8l-9,4.9-9-4.9V99l9-5m0-1.1-10,5.5v11l10,5.5,10-5.5v-11l-10-5.5Z"/><path class="cls-9" d="M1194,94l9,4.9v9.8l-9,4.9-9-4.9V99l9-5m0-1.1-10,5.5v11l10,5.5,10-5.5v-11l-10-5.5Z"/><path class="cls-9" d="M1213,94l9,4.9v9.8l-9,4.9-9-4.9V99l9-5m0-1.1-10,5.5v11l10,5.5,10-5.5v-11l-10-5.5Z"/><path class="cls-9" d="M1232,94l9,4.9v9.8l-9,4.9-9-4.9V99l9-5m0-1.1-10,5.5v11l10,5.5,10-5.5v-11l-10-5.5Z"/><path class="cls-9" d="M1251,94l9,4.9v9.8l-9,4.9-9-4.9V99l9-5m0-1.1-10,5.5v11l10,5.5,10-5.5v-11l-10-5.5Z"/><path class="cls-9" d="M1270,94l9,4.9v9.8l-9,4.9-9-4.9V99l9-5m0-1.1-10,5.5v11l10,5.5,10-5.5v-11l-10-5.5Z"/><path class="cls-9" d="M1289,94l9,4.9v9.8l-9,4.9-9-4.9V99l9-5m0-1.1-10,5.5v11l10,5.5,10-5.5v-11l-10-5.5Z"/></g><g class="cls-8"><path class="cls-9" d="M937.5,110.1l9,4.9v9.8l-9,4.9-9-4.9V115l9-4.9m0-1.2-10,5.5v11l10,5.5,10-5.5v-11l-10-5.5Z"/><path class="cls-9" d="M956.5,110.1l9,4.9v9.8l-9,4.9-9-4.9V115l9-4.9m0-1.2-10,5.5v11l10,5.5,10-5.5v-11l-10-5.5Z"/><path class="cls-9" d="M975.5,110.1l9,4.9v9.8l-9,4.9-9-4.9V115l9-4.9m0-1.2-10,5.5v11l10,5.5,10-5.5v-11l-10-5.5Z"/><path class="cls-9" d="M994.5,110.1l9,4.9v9.8l-9,4.9-9-4.9V115l9-4.9m0-1.2-10,5.5v11l10,5.5,10-5.5v-11l-10-5.5Z"/><path class="cls-9" d="M1013.5,110.1l9,4.9v9.8l-9,4.9-9-4.9V115l9-4.9m0-1.2-10,5.5v11l10,5.5,10-5.5v-11l-10-5.5Z"/><path class="cls-9" d="M1032.5,110.1l9,4.9v9.8l-9,4.9-9-4.9V115l9-4.9m0-1.2-10,5.5v11l10,5.5,10-5.5v-11l-10-5.5Z"/><path class="cls-9" d="M1051.5,110.1l9,4.9v9.8l-9,4.9-9-4.9V115l9-4.9m0-1.2-10,5.5v11l10,5.5,10-5.5v-11l-10-5.5Z"/><path class="cls-9" d="M1070.5,110.1l9,4.9v9.8l-9,4.9-9-4.9V115l9-4.9m0-1.2-10,5.5v11l10,5.5,10-5.5v-11l-10-5.5Z"/><path class="cls-9" d="M1089.5,110.1l9,4.9v9.8l-9,4.9-9-4.9V115l9-4.9m0-1.2-10,5.5v11l10,5.5,10-5.5v-11l-10-5.5Z"/><path class="cls-9" d="M1108.5,110.1l9,4.9v9.8l-9,4.9-9-4.9V115l9-4.9m0-1.2-10,5.5v11l10,5.5,10-5.5v-11l-10-5.5Z"/><path class="cls-9" d="M1127.5,110.1l9,4.9v9.8l-9,4.9-9-4.9V115l9-4.9m0-1.2-10,5.5v11l10,5.5,10-5.5v-11l-10-5.5Z"/><path class="cls-9" d="M1146.5,110.1l9,4.9v9.8l-9,4.9-9-4.9V115l9-4.9m0-1.2-10,5.5v11l10,5.5,10-5.5v-11l-10-5.5Z"/><path class="cls-9" d="M1165.5,110.1l9,4.9v9.8l-9,4.9-9-4.9V115l9-4.9m0-1.2-10,5.5v11l10,5.5,10-5.5v-11l-10-5.5Z"/><path class="cls-9" d="M1184.5,110.1l9,4.9v9.8l-9,4.9-9-4.9V115l9-4.9m0-1.2-10,5.5v11l10,5.5,10-5.5v-11l-10-5.5Z"/><path class="cls-9" d="M1203.5,110.1l9,4.9v9.8l-9,4.9-9-4.9V115l9-4.9m0-1.2-10,5.5v11l10,5.5,10-5.5v-11l-10-5.5Z"/><path class="cls-9" d="M1222.5,110.1l9,4.9v9.8l-9,4.9-9-4.9V115l9-4.9m0-1.2-10,5.5v11l10,5.5,10-5.5v-11l-10-5.5Z"/><path class="cls-9" d="M1241.5,110.1l9,4.9v9.8l-9,4.9-9-4.9V115l9-4.9m0-1.2-10,5.5v11l10,5.5,10-5.5v-11l-10-5.5Z"/><path class="cls-9" d="M1260.5,110.1l9,4.9v9.8l-9,4.9-9-4.9V115l9-4.9m0-1.2-10,5.5v11l10,5.5,10-5.5v-11l-10-5.5Z"/><path class="cls-9" d="M1279.5,110.1l9,4.9v9.8l-9,4.9-9-4.9V115l9-4.9m0-1.2-10,5.5v11l10,5.5,10-5.5v-11l-10-5.5Z"/><path class="cls-9" d="M1298.5,110.1l9,4.9v9.8l-9,4.9-9-4.9V115l9-4.9m0-1.2-10,5.5v11l10,5.5,10-5.5v-11l-10-5.5Z"/></g></g><polyline class="cls-10" points="925 131.3 925 14.3 1235 14.3 1235 131.3"/></g></svg>